<svg width="36" height="36" viewBox="0 0 36 36" fill="none" xmlns="http://www.w3.org/2000/svg">
<path d="M25.6641 15.0367C25.7225 15.2232 25.7814 15.3919 25.8285 15.5638C25.9803 16.1169 26.0702 16.6796 26.0948 17.2537C26.152 18.5844 25.8782 19.8433 25.2681 21.0242C24.5444 22.4251 23.4789 23.4942 22.0851 24.2339C21.3198 24.6399 20.5067 24.9035 19.65 25.0232C18.2008 25.2255 16.8036 25.0299 15.4723 24.4215C13.9529 23.727 12.7919 22.639 11.9854 21.1762C11.5475 20.3822 11.2668 19.5328 11.1437 18.6353C10.9263 17.0515 11.1784 15.5414 11.9142 14.1221C12.6381 12.7252 13.705 11.6603 15.0971 10.9247C15.9518 10.4731 16.8624 10.2053 17.8225 10.1014C17.8842 10.0947 17.9041 10.1133 17.9039 10.1737C17.9028 10.8739 17.9021 11.5741 17.9048 12.2742C17.9052 12.3513 17.8597 12.3551 17.8075 12.3628C17.3996 12.4235 17.0008 12.5236 16.6222 12.6859C14.8302 13.4548 13.7404 14.8003 13.3853 16.7154C13.1782 17.832 13.3488 18.915 13.8632 19.9264C14.6213 21.417 15.8281 22.3597 17.459 22.7327C18.6682 23.0093 19.8437 22.862 20.9455 22.2971C22.5215 21.4891 23.4646 20.192 23.7903 18.4525C23.9016 17.8585 23.8922 17.2601 23.7805 16.6651C23.7657 16.586 23.7845 16.5384 23.848 16.4878C24.4243 16.0289 24.9976 15.5666 25.5719 15.1053C25.5952 15.0862 25.6201 15.0692 25.6641 15.0367Z" fill="#2C3036" fill-opacity="0.8"/>
<path d="M22.9533 14.6293C22.4789 13.9423 21.8876 13.3934 21.1443 12.9741C21.1443 13.0293 21.1443 13.0666 21.1443 13.1036C21.144 14.6137 21.1511 16.1236 21.141 17.6337C21.1326 18.9109 20.1325 19.9934 18.8641 20.1227C17.4813 20.2638 16.2708 19.3289 16.0542 17.9523C15.8319 16.5405 16.8817 15.1827 18.3032 15.039C18.8902 14.9796 19.434 15.1009 19.9373 15.4078C19.957 15.4198 19.9784 15.4292 20.0153 15.4482C20.0153 13.6918 20.0153 11.9501 20.0153 10.1936C20.1041 10.211 20.1782 10.2232 20.2513 10.2402C21.7972 10.5995 23.1029 11.3687 24.1737 12.5388C24.2109 12.5796 24.2345 12.6112 24.1963 12.6713C23.7966 13.3006 23.4002 13.932 23.0028 14.5626C22.99 14.5827 22.9745 14.6008 22.9533 14.6293Z" fill="#2C3036" fill-opacity="0.8"/>
<rect x="0.5" y="0.5" width="35" height="35" rx="17.5" stroke="#C6BEB3"/>
</svg>
