<svg width="36" height="36" viewBox="0 0 36 36" fill="none" xmlns="http://www.w3.org/2000/svg">
<path d="M23.5959 22.5293C22.3811 21.8105 20.9949 21.2984 19.4747 21.0065C18.2749 20.7762 16.9884 20.6815 15.6524 20.726C13.384 20.802 11.7534 21.2503 11.6854 21.269C11.2094 21.4017 10.9299 21.9002 11.0604 22.3822C11.1908 22.8642 11.6832 23.1483 12.1598 23.0163C12.1749 23.012 13.6908 22.5988 15.7571 22.5357C17.6227 22.4783 20.3398 22.7021 22.6921 24.0937C22.8341 24.1776 22.9896 24.2178 23.143 24.2178C23.4504 24.2178 23.75 24.0571 23.9163 23.7687C24.1664 23.3362 24.0224 22.7817 23.5959 22.5293Z" fill="#2C3036" fill-opacity="0.6"/>
<path d="M23.5959 22.5293C22.3811 21.8105 20.9949 21.2984 19.4747 21.0065C18.2749 20.7762 16.9884 20.6815 15.6524 20.726C13.384 20.802 11.7534 21.2503 11.6854 21.269C11.2094 21.4017 10.9299 21.9002 11.0604 22.3822C11.1908 22.8642 11.6832 23.1483 12.1598 23.0163C12.1749 23.012 13.6908 22.5988 15.7571 22.5357C17.6227 22.4783 20.3398 22.7021 22.6921 24.0937C22.8341 24.1776 22.9896 24.2178 23.143 24.2178C23.4504 24.2178 23.75 24.0571 23.9163 23.7687C24.1664 23.3362 24.0224 22.7817 23.5959 22.5293Z" fill="#2C3036" fill-opacity="0.6"/>
<path d="M25.2007 18.8017C23.7622 17.9503 22.1195 17.3435 20.3191 16.9978C18.8978 16.7245 17.3741 16.6133 15.7915 16.6657C13.1052 16.7553 11.1729 17.2868 11.0919 17.3091C10.5279 17.4661 10.1967 18.0565 10.3516 18.6274C10.5064 19.1984 11.0898 19.5348 11.6539 19.3791C11.6718 19.3741 13.4672 18.8849 15.9155 18.8096C18.1252 18.7415 21.3447 19.0069 24.1306 20.6552C24.2991 20.7549 24.4833 20.8022 24.6646 20.8022C25.0294 20.8022 25.3835 20.6122 25.5806 20.27C25.8766 19.7579 25.706 19.1008 25.2007 18.8017Z" fill="#2C3036" fill-opacity="0.6"/>
<path d="M25.2007 18.8017C23.7622 17.9503 22.1195 17.3435 20.3191 16.9978C18.8978 16.7245 17.3741 16.6133 15.7915 16.6657C13.1052 16.7553 11.1729 17.2868 11.0919 17.3091C10.5279 17.4661 10.1967 18.0565 10.3516 18.6274C10.5064 19.1984 11.0898 19.5348 11.6539 19.3791C11.6718 19.3741 13.4672 18.8849 15.9155 18.8096C18.1252 18.7415 21.3447 19.0069 24.1306 20.6552C24.2991 20.7549 24.4833 20.8022 24.6646 20.8022C25.0294 20.8022 25.3835 20.6122 25.5806 20.27C25.8766 19.7579 25.706 19.1008 25.2007 18.8017Z" fill="#2C3036" fill-opacity="0.6"/>
<path d="M27.2607 14.6358C25.4962 13.5914 23.4814 12.8469 21.2732 12.4229C19.5294 12.088 17.6609 11.951 15.72 12.0155C12.4245 12.1253 10.055 12.7773 9.95535 12.8045C9.263 12.9975 8.8559 13.7227 9.04726 14.4235C9.23791 15.1242 9.95392 15.536 10.6463 15.343C10.7323 15.3186 19.3244 12.9896 25.9484 16.9081C26.1548 17.0301 26.3806 17.0882 26.6035 17.0882C27.0507 17.0882 27.4858 16.8551 27.7273 16.4354C28.09 15.8085 27.8807 15.0023 27.2607 14.6358Z" fill="#2C3036" fill-opacity="0.6"/>
<path d="M27.2607 14.6358C25.4962 13.5914 23.4814 12.8469 21.2732 12.4229C19.5294 12.088 17.6609 11.951 15.72 12.0155C12.4245 12.1253 10.055 12.7773 9.95535 12.8045C9.263 12.9975 8.8559 13.7227 9.04726 14.4235C9.23791 15.1242 9.95392 15.536 10.6463 15.343C10.7323 15.3186 19.3244 12.9896 25.9484 16.9081C26.1548 17.0301 26.3806 17.0882 26.6035 17.0882C27.0507 17.0882 27.4858 16.8551 27.7273 16.4354C28.09 15.8085 27.8807 15.0023 27.2607 14.6358Z" fill="#2C3036" fill-opacity="0.6"/>
<rect x="0.5" y="0.5" width="35" height="35" rx="17.5" stroke="#C6BEB3"/>
</svg>
