<svg width="36" height="36" viewBox="0 0 36 36" fill="none" xmlns="http://www.w3.org/2000/svg">
<path d="M22.5642 10.1007C22.5224 10.0986 22.4795 10.102 22.4362 10.1098L14.6956 11.6061C14.326 11.6724 14.0565 11.9994 14.0565 12.3824V20.0365C14.0565 20.3001 13.8807 20.5301 13.6304 20.5953L11.6831 21.1024L11.5186 21.1429C10.7782 21.3679 10.2184 22.0199 10.1167 22.8218C10.0923 23.0087 10.0939 23.1954 10.1222 23.3829C10.2765 24.4 11.2195 25.1001 12.2284 25.1001H12.2847C13.887 25.1001 15.1869 23.7734 15.1869 22.1379V16.059C15.1869 15.669 15.4612 15.3355 15.8371 15.268L21.3058 14.1818C21.6522 14.1195 21.9692 14.3909 21.9692 14.7497V18.3058C21.9692 18.5694 21.7935 18.7994 21.5431 18.8646L19.5958 19.3717L19.4314 19.4122C18.6909 19.6372 18.1311 20.2892 18.0294 21.0911C18.0051 21.278 18.0067 21.4647 18.0349 21.6522C18.1892 22.6693 19.1323 23.3694 20.1412 23.3694H20.1975C21.7998 23.3694 23.0996 22.0427 23.0996 20.4072V10.6776C23.0996 10.3637 22.857 10.1159 22.5642 10.1007Z" fill="#2C3036" fill-opacity="0.8"/>
<rect x="0.5" y="0.5" width="35" height="35" rx="17.5" stroke="#C6BEB3"/>
</svg>
