<svg width="24" height="24" viewBox="0 0 24 24" fill="none" xmlns="http://www.w3.org/2000/svg">
<path d="M11.5556 10.2889C10.6643 10.2889 10.1111 10.9808 10.1111 12.0944C10.1111 13.2081 10.6643 13.9 11.5556 13.9C12.4468 13.9 13 13.2081 13 12.0944C13 10.9808 12.4468 10.2889 11.5556 10.2889Z" fill="#55002B"/>
<path d="M11.5556 0.177757C5.174 0.177757 0 5.35176 0 11.7333C0 18.1149 5.174 23.2889 11.5556 23.2889C17.9371 23.2889 23.1111 18.1149 23.1111 11.7333C23.1111 5.35176 17.9371 0.177757 11.5556 0.177757ZM18.7778 12.4555C18.7778 14.0488 17.4821 15.3444 15.8889 15.3444C15.0164 15.3444 14.2422 14.9472 13.7121 14.3333C13.1993 14.966 12.4526 15.3444 11.5556 15.3444C9.854 15.3444 8.66667 14.0083 8.66667 12.0944C8.66667 10.1805 9.854 8.84442 11.5556 8.84442C12.1261 8.84442 12.6317 9.0062 13.0621 9.27776C13.1733 9.02353 13.4261 8.84442 13.7222 8.84442C14.1209 8.84442 14.4444 9.16798 14.4444 9.56665V12.4555C14.4444 13.2529 15.0916 13.9 15.8889 13.9C16.6862 13.9 17.3333 13.2529 17.3333 12.4555V12.0352C17.3333 8.96576 15.1826 6.37442 12.3283 6.00609C10.4318 5.76342 8.60744 6.41631 7.319 7.80298C6.032 9.19109 5.51489 11.0732 5.90489 12.9669C6.34544 15.1075 8.06867 16.8726 10.1906 17.3551C11.5512 17.6642 12.909 17.5111 14.1151 16.9116C14.4748 16.7369 14.9052 16.8799 15.0843 17.2381C15.2606 17.5963 15.1147 18.0296 14.7579 18.2073C13.7554 18.7042 12.6721 18.957 11.5613 18.957C11.0023 18.957 10.4361 18.8934 9.86989 18.7634C7.163 18.1481 5.05122 15.9872 4.48933 13.2572C4.00544 10.9013 4.65111 8.55554 6.26022 6.82076C7.87222 5.08598 10.1501 4.27276 12.5132 4.57176C16.0853 5.03398 18.7778 8.24209 18.7778 12.0352V12.4555Z" fill="#55002B"/>
</svg>
