<svg width="13" height="16" viewBox="0 0 13 16" fill="none" xmlns="http://www.w3.org/2000/svg">
<path d="M8.65469 0.123657C8.58118 0.0463868 8.4804 0 8.37595 0H2.12216C0.968169 0 0.015625 0.946901 0.015625 2.09851V13.9014C0.015625 15.0531 0.968169 16 2.12216 16H10.6102C11.7642 16 12.7167 15.0531 12.7167 13.9014V4.52943C12.7167 4.42896 12.6702 4.33241 12.6044 4.25892L8.65469 0.123657ZM8.76697 1.36426L11.4118 4.13526H9.69248C9.18135 4.13526 8.76697 3.72559 8.76697 3.21546V1.36426ZM10.6102 15.2271H2.12216C1.39809 15.2271 0.790087 14.6281 0.790087 13.9014V2.09851C0.790087 1.37586 1.39417 0.772951 2.12216 0.772951H7.99251V3.21546C7.99251 4.15455 8.75156 4.90821 9.69248 4.90821H11.9422V13.9014C11.9422 14.6281 11.3382 15.2271 10.6102 15.2271Z" fill="black"/>
<path d="M9.55309 12.5605H3.17931C2.96637 12.5605 2.79208 12.7344 2.79208 12.947C2.79208 13.1595 2.96637 13.3335 3.17931 13.3335H9.55701C9.76995 13.3335 9.94424 13.1595 9.94424 12.947C9.94424 12.7344 9.76995 12.5605 9.55309 12.5605Z" fill="black"/>
<path d="M4.38356 8.40198L5.97896 6.68982V10.9102C5.97896 11.1227 6.15325 11.2966 6.36619 11.2966C6.57926 11.2966 6.75342 11.1227 6.75342 10.9102V6.68982L8.34883 8.40198C8.42625 8.48304 8.52703 8.52564 8.63148 8.52564C8.72444 8.52564 8.82131 8.49085 8.89481 8.42127C9.04978 8.27442 9.0614 8.03089 8.91426 7.87635L6.64506 5.44543C6.57143 5.36816 6.47077 5.32178 6.3624 5.32178C6.25391 5.32178 6.15325 5.36816 6.07975 5.44543L3.81054 7.87635C3.6634 8.03089 3.67502 8.2782 3.82987 8.42127C3.99254 8.56812 4.23642 8.55652 4.38356 8.40198Z" fill="black"/>
</svg>
