<svg width="184" height="171" viewBox="0 0 184 171" fill="none" xmlns="http://www.w3.org/2000/svg">
<path fill-rule="evenodd" clip-rule="evenodd" d="M142.357 46.8187C140.827 68.0466 110.815 83.03 89.5272 89.5193C72.0498 94.8454 50.9912 101.197 43.9818 71.1534C40.6149 56.7515 40.1864 29.2792 46.859 15.7344C48.5431 12.208 50.8562 9.01842 53.6847 6.32199C58.0455 2.21387 63.8246 -0.0509255 69.8154 0.000869187C90.9199 0.153918 144.24 21.4126 142.357 46.8187Z" fill="#55002B"/>
<path fill-rule="evenodd" clip-rule="evenodd" d="M29.9631 167.361H30.5753V163.427L32.1057 167.361H32.6719L34.2024 163.427V167.361H34.8145V162.662H33.8504L32.32 166.519L30.7895 162.662H29.8254V167.361H29.9631ZM81.5689 143.944C81.6795 144.939 81.932 145.913 82.3188 146.837C82.514 147.189 82.794 147.487 83.1334 147.703C83.4728 147.919 83.8609 148.048 84.2625 148.076C85.8847 147.694 85.5327 146.255 85.5327 145.337C83.6503 136.889 83.4972 131.762 83.8798 122.38C83.8798 120.421 84.8134 106.524 86.1755 106.462C86.6805 106.309 94.9142 104.197 99.0769 104.488C100.73 104.733 101.22 104.595 101.434 103.57C101.541 103.095 101.434 102.958 100.959 102.774C97.271 101.243 90.0627 103.401 86.0071 104.105C85.5939 104.274 84.6451 102.728 82.3494 104.656C81.1001 104.891 79.906 105.358 78.8295 106.034C78.5693 106.141 78.4009 106.677 78.4009 106.952C78.4159 107.098 78.4603 107.24 78.5314 107.368C78.6025 107.496 78.6989 107.609 78.8148 107.699C78.9306 107.789 79.0635 107.855 79.2054 107.892C79.3474 107.93 79.4954 107.938 79.6406 107.916C80.8955 107.916 80.4364 107.427 81.7219 107.427C82.0433 107.427 82.3953 107.427 82.3647 107.855C82.1352 110.687 81.5536 110.916 80.6047 124.889C80.2892 131.247 80.6122 137.62 81.5689 143.913V143.944ZM100.47 149.408C99.3065 150.571 96.2456 147.281 95.5416 146.454C95.1087 145.906 94.7149 145.328 94.3632 144.725C94.149 144.403 94.0112 143.745 93.6439 143.852C92.8715 144.203 92.0733 144.495 91.2565 144.725C91.3483 145.26 91.532 146.133 91.5779 146.622C91.6127 146.898 91.5374 147.177 91.3684 147.397C91.1994 147.618 90.9502 147.763 90.6749 147.801C90.1875 147.858 89.6955 147.744 89.2822 147.48C88.9361 147.225 88.7006 146.847 88.6241 146.424C88.3912 144.481 88.0178 142.558 87.5069 140.669C87.109 138.985 87.5069 138.266 89.221 138.097C90.3229 137.99 90.4147 139.353 90.5066 140.348C90.5984 141.342 90.8892 142.123 91.3636 142.169C91.5061 142.182 91.6496 142.182 91.7921 142.169C93.3225 141.786 93.1389 141.679 93.1848 140.348C93.1848 140.179 93.1848 138.817 93.1848 138.633C93.1943 138.189 93.3491 137.76 93.6254 137.411C93.9018 137.063 94.2845 136.815 94.7152 136.705C94.8643 136.645 95.0243 136.617 95.1849 136.623C95.3454 136.629 95.5029 136.669 95.6471 136.74C95.7914 136.81 95.9192 136.91 96.0223 137.034C96.1254 137.157 96.2015 137.3 96.2456 137.455C96.1241 138.937 96.1241 140.427 96.2456 141.909C96.6624 143.53 97.5144 145.006 98.7096 146.178C99.735 146.99 101.77 148.061 100.362 149.454L100.47 149.408ZM106.591 148.398C102.23 148.168 99.9646 145.199 100.056 140.96C100.056 137.99 103.515 133.384 106.392 135.725C108.045 137.026 108.367 140.087 104.418 142.857C104.196 142.978 104.025 143.174 103.935 143.41C103.845 143.646 103.843 143.906 103.928 144.143C103.928 144.25 104.403 145.796 107.418 146.546C109.667 147.097 110.081 146.347 112.147 145.505C112.213 145.523 112.276 145.554 112.33 145.596C112.385 145.638 112.43 145.69 112.465 145.75C112.499 145.81 112.521 145.875 112.529 145.944C112.538 146.012 112.533 146.082 112.514 146.148C112.177 148.643 108.244 148.49 106.591 148.398ZM103.255 140.638C104.785 140.837 105.413 138.281 105.275 137.577C105.273 137.531 105.257 137.486 105.23 137.448C105.203 137.41 105.165 137.38 105.122 137.363C104.143 137.24 102.796 138.893 102.719 139.781C102.719 140.21 102.826 140.577 103.255 140.638ZM113.601 147.449C115.973 148.765 120.625 146.286 122.446 144.679C122.768 144.403 123.196 144.388 123.349 144.113C123.502 143.837 123.457 143.362 123.196 143.148L122.982 142.888H122.492C120.79 144.052 118.877 144.874 116.86 145.306C114.993 145.49 113.999 143.5 113.8 142.429C113.585 140.898 114.641 138.495 116.325 138.495C116.922 138.495 117.121 139.322 117.656 139.322C118.192 139.322 118.59 138.664 118.743 138.343C118.972 136.812 118.299 135.817 116.707 135.817C115.154 136.007 113.721 136.748 112.668 137.905C111.615 139.062 111.012 140.559 110.968 142.123C110.792 143.163 110.947 144.232 111.411 145.18C111.875 146.127 112.625 146.905 113.555 147.403L113.601 147.449ZM129.991 143.393C128.961 144.996 127.673 146.418 126.181 147.602C125.553 147.969 123.778 148.214 123.242 147.219C122.544 145.974 122.28 144.53 122.492 143.118C122.657 141.631 123.183 140.207 124.023 138.97C124.444 138.434 125.06 138.087 125.737 138.006C126.426 138.006 126.288 138.878 126.089 139.368C125.678 140.868 125.426 142.407 125.339 143.959C125.339 144.158 125.339 144.755 125.767 144.755C126.869 144.755 128.384 140.776 128.614 139.873C128.966 138.603 129.073 138.082 130.022 137.883C130.27 137.881 130.513 137.951 130.722 138.084C130.931 138.217 131.097 138.408 131.2 138.633C131.66 140.409 134.093 146.286 136.281 145.949C137.63 145.752 138.855 145.052 139.71 143.99C140.106 143.727 140.458 143.402 140.75 143.026C141.286 142.475 141.913 142.031 141.913 143.424C141.913 143.592 142.281 143.653 142.174 143.883C141.913 144.464 142.342 143.975 141.883 144.419C141.483 144.691 141.136 145.033 140.857 145.429C140.857 145.429 139.327 146.821 139.159 146.959C131.093 151.229 131.782 141.189 130.068 143.454L129.991 143.393ZM152.091 150.541C152.252 150.387 152.375 150.198 152.448 149.988C152.521 149.777 152.543 149.553 152.512 149.333C152.48 149.112 152.396 148.902 152.267 148.721C152.138 148.54 151.967 148.392 151.769 148.291C151.295 147.969 150.698 147.464 150.239 147.128C149.131 145.839 148.339 144.308 147.928 142.659C147.714 140.7 149.244 138.771 147.683 138.067C146.627 137.7 146.306 137.531 145.678 138.71C145.302 139.564 145.104 140.486 145.097 141.419C145.189 142.75 145.097 143.056 143.398 143.209H142.969C142.235 143.133 142.066 140.898 141.898 140.041C141.699 139.46 141.347 139.077 140.827 139.138C139.143 139.292 138.715 140.011 139.113 141.71C139.113 141.832 139.618 143.868 139.694 144.113C139.656 144.504 139.656 144.899 139.694 145.291C139.728 146.117 139.888 146.932 140.169 147.709C140.341 148.091 140.632 148.407 140.999 148.608C141.367 148.81 141.79 148.886 142.204 148.826C142.481 148.788 142.731 148.644 142.903 148.424C143.074 148.204 143.153 147.925 143.122 147.648C143.122 147.189 142.541 145.23 143.015 145.092C143.698 144.91 144.394 144.782 145.097 144.709C145.357 144.709 145.908 145.368 146.107 145.689C146.918 146.944 150.698 152.209 152.014 150.433L152.091 150.541ZM166.002 148.031C163.202 148.031 161.533 142.031 160.585 141.909C159.054 141.771 159.437 144.97 158.87 146.301C157.922 147.832 157.218 148.107 155.228 148.122C154.629 148.053 154.054 147.849 153.545 147.526C153.036 147.203 152.607 146.768 152.29 146.255C151.722 145.244 151.358 144.131 151.218 142.98C150.974 141.235 151.371 137.256 153.728 137.256C154.004 137.256 154.646 137.577 154.692 137.837C154.738 138.098 153.162 144.832 155.901 145.337C156.468 145.444 157.049 144.648 157.049 144.159C157.049 142.46 155.289 142.995 155.289 141.97C155.277 141.717 155.352 141.468 155.504 141.266C155.901 140.868 156.483 141.036 157.034 141.036C158.258 141.036 158.166 141.281 159.268 140.256C160.37 139.23 160.875 137.302 162.329 137.302C163.783 137.302 163.997 140.96 164.273 141.679C164.686 142.72 165.497 145.597 167.334 145.444C169.568 145.245 170.486 142.674 171.925 142.674C172.614 142.674 172.721 144.005 172.384 144.648C170.834 146.543 168.615 147.77 166.186 148.076L166.002 148.031ZM161.227 170.039C161.227 170.039 172.782 145.719 176.302 145.918C177.649 145.995 177.955 148.903 182.822 147.204C183.464 146.837 184 146.669 184 145.674C184 145.138 183.679 144.985 183.204 144.985C181.245 144.985 180.266 146.393 178.689 145.245C178.326 145.04 178.021 144.743 177.806 144.385C177.59 144.027 177.472 143.619 177.461 143.202C177.45 142.784 177.548 142.371 177.744 142.002C177.941 141.633 178.229 141.321 178.582 141.098C179.179 140.562 183.174 137.455 183.174 136.246C183.147 136.083 183.059 135.937 182.928 135.838C182.797 135.738 182.633 135.692 182.47 135.71C181.398 135.71 179.531 137.485 178.766 138.266C178.414 138.618 176.685 140.852 176.103 140.852C175.231 140.852 174.573 138.159 174.389 137.791C174.068 136.996 173.853 136.261 172.507 136.827C171.65 137.179 172.185 138.251 172.614 139.108C173.409 140.745 175.078 142.169 173.869 144.113C172.047 147.036 157.233 169.044 161.258 170.131L161.227 170.039ZM2.49204 147.434C7.42 147.434 10.4655 143.684 16.6178 145.674C19.0089 146.447 21.4473 147.066 23.9179 147.526C26.887 147.786 28.1725 144.725 25.4484 144.725H23.6272C22.8313 144.725 19.2808 144.434 19.7705 143.959C23.3517 140.455 33.1311 130.629 29.5499 113.885C29.2438 110.656 26.489 105.437 22.8313 105.024C12.9601 103.937 5.10906 118.722 5.10906 127.843C5.08801 131.509 6.04984 135.113 7.89443 138.281C8.66471 139.282 9.28351 140.391 9.73094 141.572C9.73094 141.954 9.73094 143.026 9.2412 143.026C7.83799 142.532 6.39374 142.163 4.92541 141.924C-1.36462 141.924 -0.997316 147.434 2.49204 147.434ZM3.08891 143.761C5.06315 143.898 6.67009 144.128 7.15983 144.786C5.80512 145.327 4.38487 145.687 2.93587 145.857C1.40545 145.857 2.04822 143.699 3.08891 143.761ZM12.7918 141.801C10.8634 139.307 17.2912 115.14 17.9034 110.273C17.9034 109.692 17.735 109.202 17.1994 109.202C14.9803 109.202 10.9094 138.909 10.6798 138.924C9.14938 139.046 7.15983 131.562 7.09862 130.185C5.84367 123.451 10.4196 112.003 16.7556 108.391C19.2349 106.493 25.5861 104.09 27.9889 114.421C30.6365 124.66 24.224 141.449 16.2658 143.301C14.9644 143.214 13.7349 142.672 12.7918 141.771V141.801ZM35.7481 141.801C34.4013 149.53 26.9329 149.332 27.3155 142.628C27.4335 141.471 27.9393 140.387 28.7505 139.554C29.5617 138.72 30.6309 138.186 31.7843 138.037C32.1516 138.037 32.5648 138.572 32.5801 138.786C32.5599 139.218 32.4436 139.64 32.2397 140.021C32.0359 140.403 31.7496 140.734 31.4017 140.99C30.9653 141.237 30.6021 141.595 30.3493 142.028C30.0966 142.461 29.9633 142.953 29.9631 143.454C29.9631 143.776 30.2233 145.275 31.1874 145.383C32.1516 145.49 32.7179 143.699 32.7179 143.011C32.7179 142.735 32.7179 141.373 32.7179 141.113C32.8403 139.751 34.2483 139.368 35.3961 140.454C35.5653 140.647 35.6911 140.874 35.765 141.12C35.839 141.365 35.8593 141.624 35.8246 141.878L35.7481 141.801ZM43.2472 146.163C43.5992 145.765 44.7776 144.204 45.1143 144.235C46.3539 144.327 46.3692 149.485 51.236 146.378C52.3639 145.426 53.3897 144.359 54.2968 143.194C55.3375 141.908 54.6947 148.306 59.4543 148.306C62.1172 148.306 71.6977 144.357 71.6977 142.184C71.7085 142.06 71.693 141.935 71.6522 141.817C71.6115 141.699 71.5464 141.592 71.4613 141.501C71.3761 141.41 71.2727 141.338 71.1579 141.289C71.043 141.241 70.9193 141.217 70.7947 141.22C70.3662 141.22 63.1426 147.005 58.8268 146.286C56.4088 144.755 55.9497 139.873 56.5159 137.271C56.9291 135.358 54.9855 134.011 53.7918 136.322C52.598 138.633 51.7257 144.893 48.5118 145.046C47.4099 145.046 47.3334 141.985 47.3487 141.067C47.364 140.149 49.3841 136.644 47.4864 136.644C44.7011 136.644 45.1908 140.577 43.8134 142.306C43.3084 142.934 41.6096 145.367 40.7526 145.367C40.3077 145.289 39.904 145.058 39.6107 144.715C39.3175 144.371 39.153 143.936 39.1456 143.485C39.1959 142.976 39.1959 142.463 39.1456 141.954C38.9773 141.403 38.8855 140.745 37.6152 140.837C36.7123 140.837 36.3297 142.49 36.3297 143.194C36.261 143.88 36.3339 144.573 36.5439 145.23C37.5234 148.459 41.5178 148.291 43.2472 146.301V146.163ZM149.749 167.284C150.155 167.284 150.544 167.123 150.831 166.836C151.118 166.549 151.28 166.159 151.28 165.754L151.555 163.075H153.33V167.238H153.943V162.54H151.004L150.713 165.463C150.713 166.366 150.361 166.703 149.688 166.703V167.238L149.749 167.284ZM143.168 167.284H145.051C146.122 167.284 146.78 166.733 146.78 165.845C146.78 164.958 146.153 164.392 145.097 164.392H143.781V163.106H146.443V162.585H143.168V167.284ZM143.781 166.749V164.927H145.005C145.724 164.927 146.168 165.294 146.168 165.845C146.168 166.396 145.724 166.749 144.959 166.749H143.781ZM137.659 162.157C137.778 162.172 137.899 162.162 138.014 162.129C138.129 162.096 138.237 162.04 138.33 161.964C138.423 161.888 138.499 161.794 138.555 161.688C138.611 161.582 138.644 161.465 138.654 161.346H138.118C138.118 161.591 137.934 161.729 137.659 161.729C137.383 161.729 137.2 161.591 137.2 161.346H136.649C136.66 161.466 136.695 161.583 136.753 161.689C136.81 161.796 136.888 161.889 136.982 161.965C137.077 162.041 137.185 162.096 137.301 162.129C137.417 162.162 137.539 162.172 137.659 162.157ZM135.639 162.647V167.345H136.511L138.73 163.442V167.345H139.342V162.647H138.47L136.251 166.549H136.174V162.647H135.639ZM128.874 167.345H132.165V166.809H129.486V165.187H131.843V164.652H129.502V163.121H132.119V162.585H128.89V167.284L128.874 167.345ZM120.87 167.345C121.276 167.345 121.665 167.184 121.952 166.897C122.239 166.61 122.401 166.221 122.401 165.815L122.676 163.136H124.451V167.299H125.063V162.601H122.202L121.926 165.524C121.834 166.427 121.559 166.764 120.901 166.764V167.299L120.87 167.345ZM108.275 162.157C108.394 162.172 108.515 162.162 108.63 162.129C108.745 162.096 108.853 162.04 108.946 161.964C109.039 161.888 109.115 161.794 109.171 161.688C109.227 161.582 109.26 161.465 109.27 161.346H108.719C108.719 161.591 108.55 161.729 108.275 161.729C107.999 161.729 107.816 161.591 107.816 161.346H107.356C107.356 161.805 107.77 162.157 108.367 162.157H108.275ZM106.255 162.647V167.345H107.127L109.346 163.442V167.345H109.958V162.647H109.086L106.867 166.549V162.647H106.255ZM97.4088 167.345H99.383C99.7889 167.345 100.178 167.184 100.465 166.897C100.752 166.61 100.913 166.221 100.913 165.815C100.913 165.409 100.752 165.02 100.465 164.733C100.178 164.446 99.7889 164.284 99.383 164.284H98.0209V162.631H97.4088V167.33V167.345ZM101.878 167.345H102.49V162.647H101.878V167.345ZM98.0209 166.809V164.835H99.2759C99.4158 164.818 99.5579 164.83 99.6926 164.872C99.8274 164.914 99.9517 164.983 100.057 165.077C100.163 165.17 100.248 165.285 100.306 165.414C100.364 165.542 100.394 165.682 100.394 165.823C100.394 165.964 100.364 166.103 100.306 166.231C100.248 166.36 100.163 166.475 100.057 166.568C99.9517 166.661 99.8274 166.731 99.6926 166.773C99.5579 166.814 99.4158 166.827 99.2759 166.809H98.0209ZM89.8944 167.345H90.5066V165.157H93.0318V167.345H93.6439V162.647H93.0318V164.621H90.5219V162.647H89.9097V167.345H89.8944ZM82.8545 167.345H84.8287C85.2346 167.345 85.6239 167.184 85.9109 166.897C86.1979 166.61 86.3591 166.221 86.3591 165.815C86.3591 165.409 86.1979 165.02 85.9109 164.733C85.6239 164.446 85.2346 164.284 84.8287 164.284H83.4666V162.631H82.8698V167.33L82.8545 167.345ZM83.4666 166.809V164.835H84.7216C84.8615 164.818 85.0036 164.83 85.1383 164.872C85.2731 164.914 85.3974 164.983 85.5032 165.077C85.6089 165.17 85.6935 165.285 85.7515 165.414C85.8095 165.542 85.8395 165.682 85.8395 165.823C85.8395 165.964 85.8095 166.103 85.7515 166.231C85.6935 166.36 85.6089 166.475 85.5032 166.568C85.3974 166.661 85.2731 166.731 85.1383 166.773C85.0036 166.814 84.8615 166.827 84.7216 166.809H83.4666ZM74.8504 167.345C75.2562 167.345 75.6455 167.184 75.9325 166.897C76.2195 166.61 76.3808 166.221 76.3808 165.815L76.6409 163.136H78.4315V167.299H79.0437V162.601H76.1053L75.8145 165.524C75.8145 166.427 75.4472 166.764 74.7891 166.764V167.299L74.8504 167.345ZM67.5962 167.345H68.1777L68.5756 166.289H70.9631L71.3763 167.345H71.9579L70.1979 162.647H69.3714L67.5962 167.345ZM68.7593 165.815L69.7541 163.198L70.7335 165.815H68.7593ZM61.3061 167.345H61.903V165.141H61.9795L63.9844 167.345H64.7496L62.4999 164.927L64.6884 162.647H63.9232L61.9795 164.698H61.903V162.647H61.3061V167.345ZM52.4603 167.345H54.4345C54.8404 167.345 55.2297 167.184 55.5167 166.897C55.8037 166.61 55.965 166.221 55.965 165.815C55.965 165.409 55.8037 165.02 55.5167 164.733C55.2297 164.446 54.8404 164.284 54.4345 164.284H53.0725V162.631H52.4603V167.33V167.345ZM56.9291 167.345H57.5413V162.647H56.9291V167.345ZM53.0725 166.809V164.835H54.3274C54.4674 164.818 54.6094 164.83 54.7442 164.872C54.8789 164.914 55.0033 164.983 55.109 165.077C55.2147 165.17 55.2994 165.285 55.3573 165.414C55.4153 165.542 55.4453 165.682 55.4453 165.823C55.4453 165.964 55.4153 166.103 55.3573 166.231C55.2994 166.36 55.2147 166.475 55.109 166.568C55.0033 166.661 54.8789 166.731 54.7442 166.773C54.6094 166.814 54.4674 166.827 54.3274 166.809H53.0725ZM47.2569 167.514C48.2669 167.514 49.0475 166.917 49.0475 166.106C49.0527 165.825 48.9589 165.551 48.7826 165.333C48.6063 165.115 48.3587 164.966 48.0833 164.912C48.3192 164.856 48.5286 164.72 48.6763 164.528C48.824 164.336 48.901 164.098 48.8944 163.856C48.8944 163.09 48.1598 162.555 47.2109 162.555C46.9937 162.534 46.7745 162.557 46.5666 162.624C46.3588 162.69 46.1667 162.799 46.002 162.942C45.8373 163.085 45.7035 163.26 45.6088 163.457C45.514 163.654 45.4604 163.867 45.451 164.086H46.1397C46.1389 163.937 46.1693 163.79 46.229 163.655C46.2886 163.519 46.3761 163.397 46.4858 163.298C46.5955 163.198 46.7249 163.123 46.8657 163.077C47.0064 163.03 47.1554 163.014 47.3028 163.029C47.9149 163.029 48.3894 163.366 48.3894 163.856C48.3818 163.971 48.3509 164.084 48.2986 164.187C48.2463 164.29 48.1736 164.382 48.0849 164.457C47.9963 164.531 47.8934 164.586 47.7827 164.62C47.6719 164.653 47.5555 164.664 47.4405 164.652H46.7977V165.187H47.3946C48.0527 165.187 48.5271 165.555 48.5271 166.075C48.5271 166.595 48.0068 166.993 47.3334 166.993C47.1678 167.006 47.0013 166.984 46.8447 166.929C46.688 166.874 46.5446 166.787 46.4236 166.673C46.3026 166.559 46.2067 166.421 46.142 166.268C46.0773 166.115 46.0452 165.95 46.0478 165.784H45.451C45.45 166.027 45.4997 166.267 45.5968 166.489C45.6939 166.712 45.8363 166.911 46.0148 167.076C46.1934 167.24 46.4043 167.365 46.6339 167.443C46.8636 167.521 47.107 167.55 47.3487 167.529L47.2569 167.514ZM39.1609 167.514C39.8955 167.514 40.2169 167.192 40.7832 165.983L42.4513 162.631H41.8086L40.5842 165.126L39.0538 162.631H38.4876L40.3394 165.692L40.2475 165.876C39.8649 166.687 39.5742 166.871 39.1456 166.871C38.9778 166.874 38.811 166.843 38.6559 166.779V167.315C38.8215 167.409 39.0031 167.471 39.1915 167.498L39.1609 167.514Z" fill="#55002B"/>
<path fill-rule="evenodd" clip-rule="evenodd" d="M96.1999 74.704C96.5492 77.4085 96.7026 80.1349 96.659 82.8616C96.659 83.3667 96.5825 83.9481 96.5213 84.5756C96.4074 85.4588 96.346 86.3481 96.3377 87.2386L95.4041 87.5756C95.3905 87.3054 95.3905 87.0347 95.4041 86.7644C95.4266 86.1896 95.488 85.6167 95.5877 85.0501C95.5877 84.6063 95.7102 84.1473 95.7408 83.6881C95.793 82.6685 95.793 81.6468 95.7408 80.6272C95.7408 79.5711 95.6337 78.515 95.5418 77.4743C95.3972 75.574 95.1159 73.6867 94.7001 71.8268C94.3777 70.1387 93.5629 68.5835 92.3586 67.3575C92.0066 67.3575 91.5474 67.3575 91.0118 67.3575C88.8233 67.4647 85.5788 67.6178 84.8901 66.3016V66.1944L84.9819 66.1181C85.6028 65.6573 86.3515 65.4007 87.1245 65.3835C88.2151 65.3004 89.3119 65.3671 90.3843 65.5823C91.1495 65.7354 91.624 65.8731 92.0066 65.9802C93.1023 66.2808 94.2471 66.3587 95.3735 66.2097H96.7203C99.6128 66.1178 104.265 65.9802 105.903 65.1997C106.044 65.0917 106.162 64.9559 106.249 64.8006C106.336 64.6453 106.39 64.4736 106.408 64.2966C106.427 64.0131 106.533 63.7424 106.711 63.5209C106.889 63.2993 107.13 63.1376 107.403 63.0571C107.627 62.9957 107.859 62.9647 108.091 62.9652C108.409 62.9544 108.726 62.9236 109.04 62.8733C110.418 62.5978 111.948 61.4808 110.907 56.1853C110.173 52.4662 108.336 52.5426 106.591 52.6191C105.774 52.7357 104.94 52.6355 104.173 52.3284C103.74 52.1242 103.37 51.8068 103.102 51.4099C102.906 51.1439 102.668 50.9114 102.398 50.7213C101.189 51.2111 99.4597 51.7619 98.1589 52.1599L97.4702 52.3744C97.2253 52.3744 94.1798 52.9559 92.4351 53.0936C92.109 53.1156 91.7817 53.1156 91.4556 53.0936C91.0118 53.0936 90.8741 52.9099 91.1495 52.6344C91.3874 52.4657 91.651 52.3365 91.93 52.2518C95.4434 52.0081 98.8701 51.0497 102 49.4356H102.153C102.317 49.4157 102.483 49.433 102.64 49.486C102.796 49.539 102.938 49.6262 103.056 49.7416C103.241 49.9485 103.377 50.1947 103.454 50.4612C103.888 50.9684 104.446 51.3546 105.074 51.5826C105.701 51.8105 106.377 51.8722 107.035 51.7619C108.918 51.7619 110.77 51.7619 111.627 55.1749C111.827 56.2091 111.934 57.2592 111.948 58.3125C112.005 59.2444 111.948 60.1798 111.78 61.0981C111.244 63.4244 110.372 63.5316 108.275 63.7764L107.464 63.8833C107.326 64.1894 107.219 64.4802 107.142 64.7098C106.806 65.6128 106.699 65.9036 105.964 66.2403C105.535 66.3934 104.158 66.5618 103.607 66.6689C101.786 66.9138 99.3526 67.0363 97.0569 67.1434L93.7359 67.3116C93.8568 67.546 93.9949 67.7714 94.1492 67.9853C94.382 68.3144 94.5868 68.6625 94.7613 69.0259C95.4821 70.894 95.9505 72.8499 96.154 74.8419L96.1999 74.704ZM55.5366 90.8201C56.115 90.5298 56.5865 90.0638 56.8834 89.4888C57.2293 88.7602 57.4221 87.9684 57.4496 87.1624C57.456 84.0528 57.0074 80.9591 56.1182 77.9794C55.8427 76.8928 55.5825 75.806 55.3683 74.7653C57.1788 74.5132 59.0039 74.3802 60.8319 74.3673C62.3125 74.333 63.7931 74.4354 65.2548 74.6733C64.9788 75.7548 64.7793 76.8546 64.6579 77.9641C64.544 79.2268 64.544 80.4971 64.6579 81.7597C64.6368 83.312 65.1142 84.8299 66.02 86.0907C66.1729 86.3717 66.4007 86.6051 66.6781 86.7644C66.802 86.8161 66.938 86.8317 67.0705 86.81C67.2031 86.7884 67.3269 86.7303 67.428 86.6419C67.8289 86.2167 68.0998 85.6856 68.2085 85.1114C68.3003 84.7288 68.3769 84.3462 68.4534 83.9788L68.5911 83.2289C68.9737 84.6829 69.1727 88.1416 70.5807 88.8304C71.3153 89.2742 72.9375 87.8969 73.4119 87.4224C74.4526 86.3817 75.5239 85.3257 78.6766 86.6725C79.4255 87.0086 80.1979 87.29 80.9875 87.5144C81.8542 87.7502 82.7545 87.838 83.6505 87.7744C84.5667 87.7582 85.4771 87.6244 86.3593 87.3765C86.7719 87.2707 87.1579 87.0799 87.4926 86.8164C87.8273 86.5528 88.1033 86.2223 88.3029 85.846V85.7541C88.2734 85.3606 88.1364 84.983 87.9071 84.6619C87.6777 84.3408 87.3647 84.0885 87.0021 83.9329L86.4817 83.5962C84.0484 81.8668 83.4209 81.3771 82.6404 78.3008L82.3955 77.4436C82.0451 75.5321 81.1769 73.7533 79.8856 72.301C78.3522 71.0916 76.5862 70.2113 74.6975 69.7146C73.4732 69.286 72.2335 68.934 71.0398 68.5973C65.9282 67.0668 61.3522 65.8117 61.6736 60.0418C61.6736 59.7816 61.6736 59.5217 61.6736 59.2462C61.8497 58.3621 61.8497 57.452 61.6736 56.5679C61.5852 56.2668 61.4383 55.986 61.2414 55.7417C61.0444 55.4975 60.8013 55.2944 60.5258 55.1443C60.2578 54.982 60.0154 54.781 59.8065 54.5475C59.926 54.1237 60.1355 53.7306 60.4208 53.3952C60.706 53.0597 61.0603 52.7898 61.4594 52.6038C61.8207 52.3634 62.1681 52.1028 62.5 51.8232L63.0816 52.7719C62.9274 52.8877 62.7635 52.9904 62.5919 53.0783C62.2884 53.2354 62.0099 53.4364 61.7654 53.675V53.7516C61.7784 54.7152 62.1123 55.6469 62.7143 56.3994C63.5384 57.5044 64.5238 58.4793 65.6374 59.2918C66.2417 59.8135 66.9989 60.1251 67.7953 60.1796C68.2455 60.224 68.6879 60.3268 69.1115 60.4857L71.7897 61.7867H70.397C68.0708 61.7867 65.3619 61.6643 64.2753 62.9499C64.1908 63.3561 64.2406 63.7787 64.4173 64.1542C64.594 64.5296 64.8879 64.8374 65.2548 65.0312C66.0132 65.4587 66.8345 65.7636 67.6882 65.9343C69.8089 66.3745 71.956 66.6763 74.1159 66.8374C77.0084 67.1129 80.0234 67.266 81.768 67.2354C84.5534 67.1588 84.5075 66.3015 84.4157 64.6945C84.3412 63.7664 84.4082 62.8326 84.6146 61.9246L84.8595 61.7254C85.1668 61.4467 85.4941 61.1909 85.839 60.9602C87.6908 60.5164 89.3742 60.1184 90.017 58.6645C90.4752 57.3954 90.678 56.0481 90.6139 54.7004C90.6139 53.6443 90.2313 52.7413 89.5273 52.4199C88.521 52.208 87.4864 52.1669 86.4664 52.2978H86.2369L84.0484 52.4659L81.8446 52.6191C81.0794 52.6191 78.1562 52.8335 75.83 52.7417C74.9784 52.7521 74.1292 52.6489 73.3048 52.4353C74.6937 51.4358 75.9397 50.2518 77.0084 48.9154C78.5388 47.186 80.0693 45.0279 81.8139 42.7015V42.9922L81.9364 42.5177C81.9783 42.4307 82.0296 42.3487 82.0894 42.273C82.1634 42.1653 82.2508 42.0677 82.3496 41.9823L82.5792 41.6609L82.4873 41.569H82.6404V41.4771C83.3555 39.3926 84.3879 37.4308 85.7012 35.6611C87.7607 32.6553 89.9885 29.7684 92.3739 27.014L103.791 13.6375C103.917 14.3238 103.963 15.022 103.929 15.7188C103.877 16.5129 103.76 17.3014 103.577 18.0758C103.179 19.9583 103.102 20.0197 101.847 20.938L101.266 21.3513C99.2761 22.8818 96.2305 25.0244 97.011 27.0753V27.1668H97.1182C97.6729 27.2729 98.247 27.198 98.7557 26.9527C99.2105 26.6896 99.6147 26.3477 99.9495 25.9427C100.945 24.8478 101.818 23.6467 102.551 22.3613C103.072 21.2935 103.864 20.3808 104.847 19.7135C104.947 21.0416 104.71 22.3735 104.158 23.5857L104.051 23.8918C103.858 24.5156 103.596 25.116 103.27 25.6823C102.889 25.9996 102.479 26.2814 102.046 26.5242C99.8117 27.9322 95.6643 30.5495 96.7509 32.83V32.9215H96.858C97.9663 33.0012 99.0627 32.6505 99.9188 31.9422C100.567 31.3134 101.086 30.565 101.449 29.7383C101.801 29.2792 102.107 28.8352 102.383 28.4219C102.658 28.0087 102.857 27.7334 103.041 27.4886C103.225 27.2437 103.286 27.1212 103.332 27.06L103.5 26.9527L103.684 26.8302C103.931 26.8961 104.161 27.0163 104.357 27.1822C104.5 27.3127 104.604 27.4814 104.655 27.6683C104.707 27.8552 104.704 28.053 104.648 28.2385C104.505 28.7514 104.26 29.2301 103.929 29.6464C103.217 30.6179 102.366 31.4791 101.403 32.2022C100.858 32.528 100.284 32.8046 99.6893 33.0287C98.0058 33.7175 95.8479 34.5594 95.0062 36.3042C94.9387 36.3695 94.8955 36.4558 94.8838 36.5489C94.8743 36.5943 94.878 36.6412 94.8942 36.6846C94.9105 36.7279 94.9387 36.7657 94.9756 36.7937C95.0457 36.8133 95.1198 36.8133 95.1898 36.7937C95.4675 36.7697 95.7378 36.6918 95.9857 36.5643C96.4907 36.3194 97.0263 36.0439 97.5161 35.7684C98.1188 35.4023 98.7012 35.0037 99.2608 34.5745C100.653 33.5797 101.908 32.6614 103.01 33.0441H103.179C103.209 33.1451 103.267 33.2353 103.347 33.3041C104.342 34.6663 100.73 37.6813 99.5362 38.6762C99.0769 38.3094 98.5149 38.0948 97.928 38.0619C97.3411 38.029 96.7586 38.1795 96.2611 38.4927C95.6759 38.8394 95.2315 39.3813 95.0062 40.0232C94.8378 40.6048 95.0062 41.1252 95.6184 41.2783C96.7151 41.306 97.7905 40.9725 98.6792 40.3292C98.5447 40.9897 98.2849 41.6182 97.914 42.181C97.4752 42.8871 96.8972 43.4962 96.2152 43.9716L95.8785 43.8341C95.4304 43.6016 94.9422 43.4562 94.4399 43.4055C94.01 43.3254 93.569 43.3254 93.1391 43.4055C92.9787 43.435 92.8269 43.4997 92.6946 43.595C92.5622 43.6902 92.4527 43.8139 92.3739 43.9566C92.1902 44.5688 92.481 44.8902 93.0166 45.0586C93.7574 45.1679 94.5103 45.1679 95.251 45.0586C95.5877 45.0586 95.8938 45.0586 96.0928 45.0586C96.3359 45.7311 96.3359 46.4673 96.0928 47.1398C95.88 47.8448 95.4316 48.4555 94.8225 48.8695C94.8225 48.9766 94.8225 49.099 94.8225 49.2368L94.6695 49.8335L94.9909 49.65C95.9223 49.2067 96.6423 48.415 96.9957 47.4458C97.3017 46.442 97.264 45.3648 96.8886 44.3849C98.0466 43.6538 98.8752 42.5016 99.1995 41.1711C99.3433 40.6474 99.5275 40.1357 99.7505 39.6406C100.176 39.0519 100.692 38.5352 101.281 38.1101C102.811 36.7938 104.816 35.0491 104.342 33.136C104.321 32.8775 104.21 32.6343 104.028 32.4496C103.846 32.2648 103.605 32.15 103.347 32.1256L102.964 32.0187L102.704 31.9268C103.176 31.6257 103.604 31.26 103.974 30.8402C104.432 30.3522 104.81 29.7941 105.092 29.1872C105.292 28.8636 105.422 28.5021 105.475 28.1253C105.528 27.7485 105.501 27.3648 105.398 26.9987C105.083 26.4408 104.586 26.0083 103.99 25.7742C104.495 24.7918 104.915 23.7677 105.245 22.7132C105.683 21.4643 105.762 20.1176 105.474 18.8257V18.7338H105.367C105.172 18.6703 104.964 18.6581 104.763 18.6983C104.562 18.7385 104.375 18.83 104.219 18.9636H104.097C104.686 16.7011 104.811 14.3426 104.464 12.0304V11.801L104.265 11.8926C103.538 12.2458 102.907 12.7712 102.429 13.4231C101.878 14.0965 101.373 14.8465 101.005 15.3821C100.395 16.2434 99.7195 17.0571 98.9853 17.8157C98.6588 18.1525 98.3374 18.5044 98.0211 18.8717L93.7053 24.045H93.3992C92.9153 24.0411 92.4342 24.1186 91.9759 24.2744C91.6895 24.3585 91.3982 24.4248 91.1036 24.4732C91.3805 23.8026 91.6056 23.1121 91.777 22.4072C91.968 21.5686 91.9991 20.7016 91.8688 19.8514C91.7872 19.3145 91.6111 18.7963 91.3485 18.3209C91.0931 17.8517 90.7622 17.4276 90.369 17.0658C90.1425 16.7792 89.8274 16.5756 89.473 16.487C89.1186 16.3984 88.7448 16.4296 88.4101 16.576L87.9815 16.6679C87.8728 16.1003 87.6766 15.5529 87.4 15.0455C87.1453 14.5663 86.7776 14.1565 86.3287 13.8516C86.1548 13.7063 85.9509 13.6014 85.7316 13.5445C85.5122 13.4876 85.283 13.4804 85.0605 13.5228C84.8379 13.5653 84.6276 13.6567 84.4446 13.7904C84.2616 13.924 84.1106 14.0964 84.0025 14.2955C83.5242 14.9494 83.1475 15.6716 82.8853 16.4381C82.2883 18.3065 81.9083 20.2374 81.7527 22.1927C81.7527 22.6978 81.6303 23.1878 81.5691 23.6317C81.2264 27.0541 81.068 30.4924 81.0947 33.9319C81.0384 36.3531 81.1869 38.7748 81.5385 41.1711V41.2932C81.5212 41.3697 81.4901 41.4425 81.4467 41.5077L81.3242 41.7218L81.2018 41.9057C80.3754 43.0229 79.5336 44.1094 78.6766 45.1807C77.8196 46.2521 76.8707 47.4002 75.9524 48.4562C75.5392 48.9307 74.5292 49.9865 73.5497 50.9048C73.0105 51.4275 72.4324 51.9087 71.8203 52.3437L64.3519 52.2058C64.0515 51.8534 63.8087 51.4556 63.6325 51.0273C63.4801 50.655 63.3573 50.2711 63.2653 49.8795C63.4438 49.9673 63.6402 50.0129 63.8392 50.0129C64.0382 50.0129 64.2345 49.9673 64.4131 49.8795C64.7561 49.7038 65.0505 49.4462 65.2701 49.1295C65.5072 48.8141 65.7027 48.4696 65.8517 48.1042C66.1452 47.4838 66.3217 46.8144 66.372 46.1298C66.3822 45.4329 66.331 44.7362 66.219 44.0482V43.8341C65.8599 43.8649 65.5056 43.9366 65.163 44.0482L65.2854 44.232C65.3637 44.3581 65.4158 44.4987 65.4384 44.6453C65.6112 45.4235 65.5635 46.2344 65.3007 46.987C65.1146 47.7419 64.6775 48.4111 64.0611 48.8848C63.955 48.9484 63.842 48.9995 63.7244 49.0376C63.4398 48.66 63.2128 48.2421 63.051 47.7978C62.7966 47.1446 62.6069 46.4682 62.4847 45.7778C62.3164 44.431 63.6938 44.0789 65.0711 43.7269L65.8976 43.4974H66.02V43.3749C66.0356 42.9248 65.8766 42.4859 65.5762 42.1504C65.1369 41.6556 64.5706 41.2905 63.9386 41.0945C63.2176 40.8577 62.4631 40.7389 61.7042 40.7425C60.4773 40.6849 59.263 41.0111 58.2302 41.6759C57.9971 41.4681 57.7197 41.3166 57.419 41.2323C57.251 41.1938 57.0767 41.1913 56.9078 41.2256C56.7388 41.2599 56.5792 41.33 56.4396 41.4311C56.1492 41.6392 55.9173 41.9186 55.7662 42.2423C55.4953 42.8424 55.3695 43.4977 55.3989 44.1554C55.3924 44.61 55.503 45.0586 55.7201 45.458C55.9372 45.8574 56.2535 46.1941 56.6385 46.4359C56.9599 46.7113 57.2354 46.9256 57.2201 47.1858C57.2034 47.7962 57.0573 48.3959 56.7916 48.9457C56.5584 49.4776 56.282 49.9895 55.9651 50.4762C55.4617 51.1642 55.0978 51.9441 54.8938 52.7719C54.6797 54.4282 54.6797 56.1051 54.8938 57.7613C55.2458 62.0314 55.4295 64.2201 52.7053 67.7555L52.5982 67.878L52.7359 67.9853C52.8267 68.0471 52.9297 68.0886 53.038 68.1071C53.1463 68.1256 53.2573 68.1204 53.3634 68.0921C53.5926 68.0274 53.7992 67.9002 53.9603 67.7248C55.1046 66.3318 55.7984 64.6238 55.9498 62.8273C56.088 61.099 56.0572 59.3615 55.858 57.6391C55.6672 56.0685 55.6672 54.4804 55.858 52.9098C55.9224 52.5715 56.0413 52.246 56.21 51.9458C56.3784 51.6091 56.5926 51.2874 56.8069 50.9354C57.1498 50.4111 57.4566 49.8642 57.7251 49.298C58.0163 48.6407 58.1824 47.9346 58.2149 47.2164C58.2149 46.5124 57.8323 46.1758 57.3425 45.7625L56.9446 45.4259C56.8103 45.2979 56.6921 45.1539 56.5926 44.9973C56.3462 44.4672 56.2662 43.8747 56.363 43.2983C56.4618 42.8355 56.7223 42.4231 57.0977 42.1351C57.1768 42.1429 57.253 42.1695 57.3201 42.2124C57.3871 42.2553 57.443 42.3134 57.4833 42.3821C57.5236 42.4507 57.5471 42.5279 57.5519 42.6074C57.5567 42.6868 57.5426 42.7661 57.5109 42.839C57.4406 42.9326 57.3839 43.036 57.3425 43.1454C57.3425 43.3138 57.3425 43.4362 57.4343 43.5127H57.5262L59.179 42.2883C59.306 42.1978 59.4389 42.1161 59.5769 42.0435L59.9902 41.8597C60.9915 41.5818 62.0496 41.5818 63.051 41.8597C63.7855 41.9707 64.4517 42.3529 64.9181 42.931L64.1223 43.1608C63.1275 43.4516 62.2705 43.6808 61.8113 44.7828C61.6523 45.515 61.6947 46.2769 61.9338 46.987C62.2552 48.5175 62.6531 50.4306 61.1839 51.5785C60.9538 51.7996 60.7083 52.004 60.4493 52.1905C60.0249 52.4158 59.6731 52.7568 59.4347 53.174C59.1963 53.5912 59.0811 54.0675 59.1025 54.5475C59.3323 55.0196 59.7231 55.3939 60.2044 55.6035C60.5072 55.7346 60.7595 55.96 60.9237 56.2462C61.1375 57.0657 61.1741 57.9216 61.0308 58.7564C60.7875 59.9882 60.8456 61.2604 61.2 62.4649C61.5544 63.6694 62.1947 64.7705 63.0663 65.6742C64.5967 67.2047 67.9177 68.169 71.2847 69.1944C74.0302 69.817 76.6664 70.8489 79.1051 72.2554C80.7274 73.4951 81.3089 75.6377 81.9211 77.9182C83.3291 81.2546 82.7781 81.928 86.4205 84.0401C86.9715 84.3615 87.3847 84.6065 87.5071 85.2493C86.8925 85.7162 86.1866 86.0486 85.4352 86.2253C84.6838 86.4019 83.9037 86.4187 83.1454 86.2746C81.655 86.0548 80.1992 85.6432 78.8143 85.0501C75.6157 83.7645 74.4067 84.9126 73.213 86.0298C72.6723 86.6552 71.9671 87.1163 71.1775 87.3612C69.8614 85.8307 69.9226 83.229 69.4635 80.6578C69.4132 78.7151 69.0938 76.7888 68.5146 74.9338C68.4055 74.6705 68.2389 74.4347 68.0271 74.244C67.8153 74.0533 67.5635 73.9124 67.2903 73.8315C67.2903 73.7397 67.2903 73.648 67.1678 73.6021C67.1335 73.5803 67.0937 73.5688 67.053 73.5688C67.0124 73.5688 66.9726 73.5803 66.9383 73.6021C66.9281 73.5799 66.9133 73.5604 66.8948 73.5445C66.8763 73.5287 66.8546 73.5168 66.8311 73.5101H66.4944H66.1577C63.2799 72.9715 60.3337 72.9045 57.4343 73.3114C56.6745 73.4392 55.8986 73.4392 55.1387 73.3114C54.3685 72.4001 53.3289 71.7571 52.1697 71.4748C51.395 71.2093 50.5854 71.0597 49.7669 71.0309C48.9747 71.0138 48.2066 71.3046 47.6243 71.8421C47.5325 73.6787 49.4762 74.2142 51.5728 74.3367C52.6288 74.3367 53.7307 74.3367 54.6337 74.3367C55.8658 77.7177 56.6379 81.2492 56.9293 84.836C57.0061 85.8055 56.9338 86.7809 56.7151 87.7285C56.5817 88.4283 56.1809 89.0488 55.5978 89.4581C55.3724 89.5894 55.1223 89.6726 54.8632 89.7029C55.1846 89.9477 55.5213 90.1772 55.858 90.4068L55.5366 90.8201ZM93.3839 24.6417L92.0831 26.1722C91.6546 26.7231 91.073 27.4426 90.3843 28.2538C87.7061 31.4831 83.6199 36.396 82.2272 40.1151C82.2272 39.7937 82.2272 39.4721 82.12 39.1813C82.0129 38.8905 82.12 38.615 82.0435 38.3855C81.8752 35.4493 81.8752 32.5059 82.0435 29.5698C82.166 26.6313 82.4414 23.7234 82.7934 20.8614C82.8822 18.8422 83.5054 16.8828 84.5993 15.1834C84.7971 14.9007 85.0907 14.6993 85.4257 14.6169C85.5532 14.5951 85.6838 14.5988 85.8099 14.6277C85.936 14.6566 86.0551 14.7102 86.1604 14.7854C86.6382 15.2155 86.9609 15.7908 87.0786 16.4228C87.2091 17.5768 86.9621 18.7423 86.3746 19.7442C85.7165 21.2747 85.0278 22.8049 86.1604 24.4732L86.2522 24.5957H86.3746C87.7214 23.7693 87.8132 21.5346 87.905 19.8817C87.8704 19.2294 87.9533 18.5762 88.1499 17.9533C88.2843 17.8577 88.4279 17.7759 88.5784 17.7085C88.7329 17.6411 88.8996 17.6065 89.0682 17.6065C89.2367 17.6065 89.4034 17.6411 89.5579 17.7085C89.8826 17.8651 90.1618 18.1021 90.369 18.3972C90.5701 18.6975 90.7443 19.0152 90.8893 19.3462C91.0793 19.8354 91.1879 20.3524 91.2107 20.8767C91.2475 21.4576 91.1959 22.0406 91.0577 22.606C90.8528 23.9506 90.1341 25.1632 89.0528 25.9883C88.7468 26.2485 88.4101 26.5548 88.0122 26.9527L87.7061 27.2588C87.4775 27.4283 87.285 27.6418 87.1398 27.8865C87.1398 28.0702 87.1398 28.1617 87.1398 28.3607C87.1865 28.4445 87.2274 28.5317 87.2623 28.6211V28.7586H87.4L87.8744 28.6058C88.021 28.553 88.16 28.4807 88.2876 28.3913L88.6396 28.0853C88.755 27.9751 88.8777 27.8729 89.0069 27.7793C89.2188 27.5398 89.418 27.2895 89.6038 27.0293C89.9159 26.466 90.3759 25.9984 90.9342 25.6775C91.4925 25.3565 92.1279 25.1944 92.7718 25.2081L93.0013 24.963L93.1697 24.8102L93.3839 24.6417ZM86.4205 23.3713C86.3849 22.7498 86.4364 22.1266 86.5736 21.5194C86.6907 20.8842 86.8754 20.2635 87.1245 19.6676V19.897C87.1647 21.0926 86.9291 22.2814 86.4358 23.3713H86.4205ZM99.5362 23.7692C100.306 23.0536 101.13 22.3985 102 21.8101C101.408 23.004 100.662 24.1156 99.7811 25.1162C99.2254 25.8003 98.4537 26.275 97.5926 26.4629C97.5926 25.4987 98.4343 24.7184 99.123 24.0603L99.4597 23.7692H99.5362ZM98.8628 29.8912C99.6151 29.1103 100.458 28.4221 101.373 27.8405C101.128 28.2079 100.914 28.6058 100.684 29.019C99.8882 30.4424 99.0159 31.9879 97.3018 32.2022C97.6286 31.325 98.1521 30.5344 98.8322 29.8912H98.8628ZM98.6792 34.3604C98.0983 34.8465 97.4484 35.2437 96.7509 35.539C97.1186 35.2178 97.5186 34.9356 97.9446 34.6971C98.2223 34.5342 98.5084 34.386 98.8016 34.2532L98.6792 34.3604ZM95.9091 40.6659C95.8715 40.5924 95.8519 40.5111 95.8519 40.4286C95.8519 40.3461 95.8715 40.2648 95.9091 40.1913C96.0397 39.9237 96.2217 39.6846 96.4448 39.4874C96.5784 39.3204 96.7454 39.1833 96.9352 39.0849C97.125 38.9865 97.3333 38.929 97.5467 38.916C97.7601 38.9031 97.9739 38.9352 98.1742 39.0098C98.3745 39.0845 98.557 39.2004 98.7098 39.3499C98.6506 39.4419 98.5723 39.5201 98.4802 39.5793L97.3936 40.2679C96.4142 40.8036 95.9703 40.8342 95.8632 40.6352L95.9091 40.6659ZM94.2869 44.6606C93.9643 44.6491 93.6493 44.5596 93.3686 44.4002C93.6367 44.2977 93.9242 44.2562 94.2104 44.278C94.5568 44.3041 94.8947 44.3975 95.2051 44.5534C94.9113 44.659 94.5971 44.6958 94.2869 44.6606ZM84.4004 60.6235C84.6211 60.4633 84.8569 60.3249 85.1044 60.2103C85.2255 60.0137 85.3584 59.8248 85.5023 59.6442C86.0073 58.9555 86.696 58.0062 86.4052 57.3787C83.6505 55.0983 79.7479 55.2056 76.3657 55.3128C74.531 55.5155 72.6743 55.3542 70.9021 54.8382C70.6878 54.6087 70.7337 54.3178 70.7796 53.9811C70.7947 53.8284 70.7947 53.6749 70.7796 53.5222H65.0099C65.6584 54.7429 66.4111 55.905 67.2597 56.9961C67.8881 57.9523 68.6509 58.8134 69.5247 59.5523C70.1062 59.5523 70.7031 59.399 71.2693 59.3071C72.9987 59.0317 74.6057 58.7715 75.631 59.751C75.631 61.0673 74.9271 61.4194 74.1006 61.8327H73.9935H75.1719C78.023 62.0985 80.8987 61.8286 83.6505 61.0368L84.3545 60.4857L84.4004 60.6235ZM67.3515 76.2038C67.6267 76.8682 67.802 77.5698 67.8718 78.2855C67.8718 79.418 67.8718 80.5965 67.8718 81.775C67.8671 82.4927 67.7746 83.207 67.5963 83.9022C67.5963 84.0553 67.5198 84.2391 67.4892 84.4074L67.3974 84.8054L66.9689 85.6012C66.57 85.1992 66.2561 84.721 66.0458 84.1952C65.8354 83.6693 65.733 83.1065 65.7445 82.5403C65.5362 80.0924 65.6494 77.6276 66.0812 75.2092C66.3559 75.2668 66.6117 75.3921 66.8256 75.5738C67.0394 75.7556 67.2044 75.988 67.3056 76.2498L67.3515 76.2038ZM48.3589 72.6074C49.3431 72.2232 50.4357 72.2232 51.4198 72.6074C52.2727 72.8293 53.0466 73.285 53.6542 73.9234C51.8636 74.0305 48.864 74.1379 48.3589 72.6534V72.6074ZM87.3694 66.1944H87.1704C87.6778 66.2667 88.1887 66.3128 88.7008 66.3322C89.1112 66.3509 89.5222 66.32 89.9252 66.2403C89.5864 66.171 89.2441 66.1201 88.8998 66.0875C88.3939 65.9946 87.8753 65.9946 87.3694 66.0875V66.1944ZM83.5892 62.1847C83.5892 62.3836 83.5892 62.3834 83.5892 62.3834C83.5419 62.3846 83.4955 62.3963 83.4531 62.4174C83.4108 62.4386 83.3737 62.4688 83.3444 62.506V66.0262C80.1966 66.4629 77.0036 66.4629 73.8558 66.0262C69.7695 65.6283 65.7904 64.7866 65.1324 63.4704C66.0047 62.4909 69.7236 62.613 73.6721 62.7354C76.7353 62.9514 79.8126 62.8488 82.8546 62.4294L83.5892 62.0927V62.1847ZM72.6467 59.9349C73.3009 59.8337 73.9668 59.8337 74.621 59.9349C74.6489 60.1021 74.6489 60.2725 74.621 60.4397C74.5664 60.5736 74.4789 60.6917 74.3665 60.7827C74.2541 60.8737 74.1205 60.9347 73.9782 60.9602C73.5951 61.0449 73.1982 61.0449 72.8151 60.9602C72.1498 60.8335 71.5091 60.6011 70.9174 60.2715C71.5007 60.0654 72.1073 59.9317 72.7233 59.8736L72.6467 59.9349ZM66.4026 57.2412C66.9051 57.8893 67.3652 58.569 67.78 59.2765C67.2278 59.147 66.7073 58.9076 66.2496 58.5725C65.7453 58.2181 65.2877 57.8019 64.8875 57.3331L64.5967 57.0267C63.7218 56.2639 63.1288 55.229 62.9132 54.0883L63.755 53.7516C64.4208 54.3562 64.9978 55.052 65.4691 55.818L65.9129 56.4606C66.0812 56.7208 66.2802 56.981 66.4791 57.2412H66.4026ZM86.8643 59.4757C86.7863 59.5941 86.7148 59.7167 86.6501 59.843C88.1805 59.5675 88.8539 59.093 89.2212 58.3125C89.5893 57.1093 89.6989 55.842 89.5426 54.5935C89.5461 54.3506 89.5152 54.1084 89.4508 53.8742C89.4179 53.7039 89.3612 53.5389 89.2824 53.3843C87.1167 53.1785 84.9346 53.2197 82.7781 53.5069C81.6915 53.5987 80.6814 53.6751 79.9009 53.7057C78.646 53.7057 77.4676 53.7057 76.2432 53.7057H75.2178H74.5292C74.0805 53.6821 73.631 53.6821 73.1824 53.7057C72.4325 53.7057 71.7744 53.8433 71.652 54.3484C72.5855 54.3484 73.6874 54.3484 74.8811 54.3484C79.4724 54.3484 85.487 54.3486 87.247 57.3025C87.341 57.672 87.3542 58.0573 87.2855 58.4324C87.2168 58.8075 87.0679 59.1634 86.849 59.4757H86.8643Z" fill="white"/>
</svg>
