<svg width="1440" height="133" viewBox="0 0 1440 133" fill="none" xmlns="http://www.w3.org/2000/svg">
<path fill-rule="evenodd" clip-rule="evenodd" d="M1439.98 24.8182C1317.87 -8.29582 1115.74 20.6352 922.643 48.28C727.773 76.1846 542.095 102.764 456.192 62.9207C452.282 67.6442 447.501 71.8785 442.009 75.483C430.83 82.6662 418.123 88.2136 404.482 91.8647C389.26 96.0734 373.381 98.613 357.287 99.4125C330.727 100.712 303.116 97.5807 279.51 88.6169C270.416 103.258 252.916 113.871 229.803 120.925C203.308 129.032 169.41 132.474 132.425 131.981C90.2206 131.422 43.9284 125.719 0 115.963V113.949C43.9119 123.758 90.2862 129.539 132.475 130.045C169.147 130.526 202.734 127.122 228.917 119.12C251.455 112.234 268.511 101.933 277.31 87.7595C256.265 79.3543 238.602 66.2204 228.063 47.4874C218.805 31.0538 219.593 17.2184 225.584 9.02112C227.767 5.83292 231.234 3.31348 235.434 1.86307C239.685 0.541426 244.405 0.513738 248.681 1.78521C259.45 4.76014 271.335 15.114 279.986 35.4449C287.701 53.5673 288.194 68.8576 283.138 81.5757C282.407 83.3782 281.552 85.1477 280.577 86.8762C303.789 95.697 330.973 98.8408 357.156 97.4897C373.019 96.7058 388.672 94.2057 403.678 90.0589C417.038 86.4843 429.485 81.0512 440.433 74.0151C445.718 70.5559 450.317 66.4875 454.074 61.9464C446.752 58.4264 440.008 54.2026 433.998 49.3712C421.325 38.9784 418.78 27.6243 421.637 19.4919C422.713 16.0916 425.1 13.0406 428.466 10.762C430.008 9.74162 431.814 9.00199 433.757 8.59564C435.701 8.1893 437.733 8.12611 439.71 8.41058C446.457 9.35892 453.844 14.3864 459.754 25.2989C466.895 38.5107 465.237 50.7223 457.489 61.271C542.489 100.738 727.756 74.2618 922.233 46.3702C1115.17 18.7514 1317.1 -10.1535 1440 22.7657V24.8182H1439.98ZM435.754 47.9941C441.606 52.7145 448.179 56.8386 455.322 60.2707C462.692 50.2156 464.252 38.6016 457.472 26.0523C451.94 15.8154 445.259 11.1386 439.251 10.2942C437.62 10.0612 435.945 10.1162 434.344 10.4553C432.744 10.7944 431.258 11.4093 429.992 12.2559C427.012 14.2948 424.911 17.0201 423.984 20.0505C421.325 27.6242 423.771 38.2379 435.754 48.0591V47.9941ZM230.263 46.695C240.572 64.9863 257.808 77.7954 278.361 86.0187C279.282 84.3752 280.088 82.6924 280.774 80.9782C285.698 68.6628 285.19 53.6972 277.638 36.0684C269.266 16.3741 257.94 6.41002 247.86 3.59097C244.162 2.46409 240.067 2.46409 236.369 3.59097C232.667 4.87289 229.615 7.10058 227.702 9.91758C222.039 17.6862 221.365 30.8589 230.263 46.669V46.695Z" fill="#55002B"/>
</svg>
