<svg width="1344" height="493" viewBox="0 0 1344 493" fill="none" xmlns="http://www.w3.org/2000/svg">
<path fill-rule="evenodd" clip-rule="evenodd" d="M1360.91 6.94748C1314.48 30.0928 1265.83 58.9522 1215.78 88.7164C1039.52 193.302 845.834 308.248 667.196 223.395C659.136 237.671 648.958 250.819 636.96 262.451C611.125 287.068 580.762 307.175 547.31 321.815C510.057 338.59 470.504 350.513 429.763 357.252C362.625 368.517 291.117 366.502 227.687 346.029C210.031 392.361 169.157 428.909 112.921 456.371C79.8919 472.023 45.1426 484.304 9.27893 493H-18C26.4133 484.079 69.4278 469.933 110.008 450.903C164.831 424.181 204.425 388.743 221.684 344.015C162.801 324.607 113.116 286.54 81.3166 236.469C51.6541 189.644 48.6083 147.875 60.8353 121.687C65.2378 111.483 73.198 102.954 83.4353 97.4735C93.7999 92.3205 105.852 90.9433 117.247 93.6093C145.85 99.6115 179.971 127.444 209.545 186.15C236.03 238.443 242.96 284.199 234.529 323.706C233.377 329.258 231.904 334.747 230.115 340.15C292.442 360.254 362.802 362.268 428.748 351.168C468.869 344.501 507.823 332.758 544.529 316.265C577.259 301.938 606.977 282.28 632.281 258.217C643.862 246.985 653.67 234.278 661.414 220.477C642.079 210.735 623.808 199.267 606.856 186.232C570.661 158.647 559.978 125.059 564.26 99.8994C565.752 89.3719 570.737 79.5407 578.518 71.7792C582.084 68.286 586.432 65.5658 591.253 63.811C596.074 62.0563 601.25 61.31 606.415 61.625C624.071 62.6528 644.729 75.7671 663.798 106.847C687.369 145.409 687.192 183.313 670.198 217.846C845.878 301.054 1037.71 187.177 1212.29 83.5775C1263.63 53.1144 1313.42 23.5154 1361 0V6.98863L1360.91 6.94748ZM610.873 181.504C627.445 194.224 645.302 205.418 664.195 214.927C680.13 182.326 680.218 146.437 657.971 110.012C640.315 80.8649 621.422 68.696 605.841 67.7505C601.636 67.4874 597.421 68.0872 593.493 69.5079C589.565 70.9286 586.02 73.1357 583.108 75.9726C576.305 82.7885 571.954 91.4111 570.661 100.639C566.688 124.031 576.796 155.316 610.873 181.298V181.504ZM86.79 233.057C117.806 281.843 166.238 318.933 223.626 337.848C225.398 332.732 226.872 327.531 228.04 322.267C236.206 283.952 229.276 239.47 203.542 188.451C174.983 131.718 142.628 104.955 115.835 99.3233C105.999 96.9933 95.5844 98.151 86.6135 102.571C77.6844 107.418 70.7422 114.896 66.8825 123.825C55.1852 148.533 58.3193 188.205 86.79 233.057Z" fill="#C6BEB3" fill-opacity="0.16"/>
</svg>
