<svg width="18" height="24" viewBox="0 0 18 24" fill="none" xmlns="http://www.w3.org/2000/svg">
<path d="M8.55522 0.651825C13.2279 0.651825 17.0293 4.40657 17.0293 9.02176C17.0293 14.7493 9.44583 23.1578 9.12296 23.5129C8.81969 23.8466 8.29021 23.846 7.98749 23.5129C7.66461 23.1578 0.0811481 14.7493 0.0811481 9.02176C0.0812397 4.40657 3.88264 0.651825 8.55522 0.651825ZM8.55522 13.2329C10.9061 13.2329 12.8187 11.3438 12.8187 9.02176C12.8187 6.69972 10.9061 4.81066 8.55522 4.81066C6.20435 4.81066 4.29179 6.69977 4.29179 9.0218C4.29179 11.3438 6.20435 13.2329 8.55522 13.2329Z" fill="#55002B"/>
</svg>
