<svg width="73" height="68" viewBox="0 0 73 68" fill="none" xmlns="http://www.w3.org/2000/svg">
<path fill-rule="evenodd" clip-rule="evenodd" d="M72.7994 33.8284C71.6675 49.2024 49.9765 60.0484 34.6295 64.7474C21.9808 68.6041 6.73921 73.1978 1.72448 51.4927C-0.710495 41.0679 -1.02638 21.2187 3.81724 11.3862C4.99237 8.84893 6.62039 6.5473 8.62138 4.59426C11.779 1.61269 15.9666 -0.0331994 20.3093 0.000507685C35.5772 0.0399955 74.1683 15.4403 72.7994 33.8284Z" fill="#55002B"/>
<path fill-rule="evenodd" clip-rule="evenodd" d="M25.0344 32.8018C27.3509 32.8018 28.7724 31.0511 31.6154 31.9857C32.7393 32.3533 33.8871 32.6435 35.0507 32.8544C36.4327 32.9729 37.0381 31.5382 35.7877 31.5382H34.9059C34.5373 31.5382 32.8658 31.4065 33.1027 31.1696C35.0677 29.4494 36.5309 27.2297 37.3373 24.7457C38.1436 22.2616 38.2631 19.6057 37.6831 17.0593C37.5383 15.5456 36.2879 13.1105 34.5373 12.8999C29.8912 12.3865 26.2058 19.3232 26.2058 23.6143C26.1995 25.3347 26.654 27.0254 27.522 28.5107C27.878 28.9862 28.166 29.5089 28.3775 30.0639C28.3775 30.2351 28.3775 30.7352 28.1538 30.7352C27.4934 30.5088 26.8154 30.3371 26.1268 30.2219C23.1785 30.2219 23.3496 32.8544 24.9817 32.8544L25.0344 32.8018ZM25.3108 31.0906C26.2453 31.0906 26.9955 31.2617 27.2324 31.5645C26.5956 31.8204 25.927 31.9887 25.245 32.0647C24.5342 32.0647 24.8238 31.0643 25.245 31.0906H25.3108ZM29.878 30.1692C28.9698 28.9978 31.9839 17.6384 32.2735 15.3613C32.2735 15.0849 32.1945 14.8611 31.9444 14.8611C30.9046 14.8611 28.983 28.8003 28.8777 28.8135C28.1669 28.8135 27.2324 25.3517 27.2061 24.7068C26.6138 21.5477 28.7592 16.1774 31.7338 14.4794C32.8921 13.5843 35.8799 12.4524 36.9987 17.3094C38.1174 22.1664 35.2481 29.9981 31.5101 30.9195C30.8996 30.892 30.3198 30.6441 29.878 30.2219V30.1692ZM40.6577 30.1692C40.0391 33.8021 36.5248 33.71 36.7091 30.5641C36.7533 30.0147 36.9857 29.4974 37.3669 29.0994C37.7481 28.7014 38.2549 28.447 38.8019 28.3791C38.973 28.3791 39.1704 28.6292 39.1835 28.7214C39.171 28.9241 39.1152 29.1218 39.0199 29.3012C38.9245 29.4806 38.7918 29.6374 38.6307 29.7612C38.423 29.8749 38.2498 30.0424 38.1294 30.2463C38.0089 30.4502 37.9457 30.6827 37.9463 30.9195C37.9463 31.0643 38.0648 31.7751 38.5254 31.8146C38.9861 31.8541 39.2099 31.038 39.223 30.7089C39.2362 30.3798 39.223 29.9323 39.223 29.8139C39.223 29.182 39.9469 28.9978 40.5392 29.5111C40.6204 29.5983 40.6805 29.703 40.7147 29.8172C40.7489 29.9313 40.7564 30.0517 40.7367 30.1692H40.6577ZM44.1851 32.2358C44.3562 32.0515 44.9222 31.3144 45.067 31.3276C45.6461 31.3276 45.6461 33.789 47.9495 32.3411C48.4797 31.9183 48.9648 31.4419 49.3973 30.9195C49.8843 30.314 49.5815 33.3283 51.8191 33.3283C53.1353 33.3283 57.5841 31.4723 57.5841 30.4457C57.5897 30.3877 57.5829 30.3292 57.5642 30.2741C57.5454 30.2191 57.515 30.1686 57.4751 30.1262C57.4352 30.0838 57.3867 30.0505 57.3329 30.0284C57.279 30.0063 57.221 29.996 57.1629 29.9981C56.9523 29.9981 53.5696 32.7096 51.5427 32.3674C50.3976 31.6698 50.2265 29.3663 50.4502 28.1422C50.6477 27.234 49.7395 26.6153 49.134 27.6947C48.5286 28.774 48.1732 31.7224 46.6596 31.7882C46.1463 31.7882 46.1068 30.3272 46.1068 29.9192C46.1068 29.5111 47.0676 27.8526 46.1726 27.8526C44.8564 27.8526 45.0933 29.6954 44.4484 30.4851C44.2114 30.7879 43.4086 31.8935 42.9874 31.8935C42.7768 31.8596 42.585 31.7526 42.4454 31.5914C42.3058 31.4301 42.2274 31.2249 42.224 31.0117C42.2508 30.7623 42.2508 30.5107 42.224 30.2614C42.145 30.0113 42.1055 29.6954 41.5264 29.7349C40.9473 29.7744 40.9209 30.5115 40.9209 30.8405C40.8872 31.1638 40.9186 31.4905 41.0131 31.8014C41.1343 32.1031 41.3332 32.3674 41.5896 32.5674C41.846 32.7674 42.1508 32.896 42.4729 32.9401C42.7951 32.9842 43.1232 32.9423 43.4239 32.8186C43.7246 32.6949 43.9872 32.4938 44.1851 32.2358Z" fill="white"/>
<path fill-rule="evenodd" clip-rule="evenodd" d="M8.14758 42.2525C8.2073 42.705 8.3268 43.1477 8.50295 43.5688C8.59509 43.8188 9.16106 44.2137 9.4243 44.1479C10.1745 43.9636 10.0166 43.2923 10.0166 42.8316C9.21305 39.3028 8.9512 35.6722 9.24003 32.0646C9.24003 31.1564 9.67438 24.6277 10.3062 24.6014C12.283 24.074 14.3153 23.7824 16.3607 23.7327C17.1372 23.8512 17.361 23.7327 17.4663 23.3115C17.4663 23.0746 17.4663 23.0219 17.2425 22.9298C15.5183 22.2058 12.1225 23.2193 10.2272 23.5616C10.0298 23.6405 9.58224 22.9166 8.50295 23.8117C7.91702 23.9222 7.35821 24.1457 6.8577 24.4698C6.72608 24.4698 6.64711 24.7725 6.64711 24.891C6.65145 24.9601 6.67049 25.0276 6.70295 25.0887C6.73542 25.1499 6.78057 25.2035 6.83538 25.2459C6.89019 25.2882 6.95341 25.3184 7.02081 25.3344C7.08821 25.3504 7.15825 25.3518 7.22624 25.3385C7.8317 25.3385 7.60794 25.1148 8.21339 25.1148C8.35818 25.1148 8.52928 25.1148 8.51612 25.3254C8.10026 27.9723 7.82348 30.6392 7.68691 33.3151C7.53836 36.3017 7.68827 39.2957 8.13442 42.2525H8.14758ZM17.0319 44.806C16.4791 45.3589 15.0445 43.8188 14.7154 43.4898C14.5102 43.2372 14.3254 42.9687 14.1626 42.6869C14.0573 42.5289 13.9915 42.2262 13.8204 42.2657C13.4633 42.4417 13.0882 42.5785 12.7016 42.6737C12.7016 42.937 12.8333 43.345 12.8596 43.5688C12.8636 43.695 12.8197 43.8181 12.7367 43.9134C12.6537 44.0086 12.5377 44.0689 12.4121 44.0821C12.1829 44.1044 11.9526 44.0537 11.754 43.9373C11.5918 43.8164 11.4831 43.6369 11.4512 43.4371C11.3495 42.5248 11.1735 41.6224 10.9248 40.7388C10.7405 39.949 10.9248 39.6068 11.7408 39.5278C12.241 39.5278 12.2936 40.1201 12.3331 40.5808C12.3726 41.0415 12.5174 41.4233 12.7411 41.4364C12.8067 41.445 12.873 41.445 12.9386 41.4364C13.702 41.2521 13.5703 41.1995 13.5967 40.5808C13.5967 40.5019 13.5967 39.8964 13.5967 39.7648C13.6001 39.5562 13.6733 39.3547 13.8044 39.1925C13.9356 39.0303 14.1173 38.9167 14.3206 38.8697C14.3902 38.8407 14.4652 38.8267 14.5406 38.8284C14.6161 38.8302 14.6903 38.8478 14.7585 38.8801C14.8267 38.9123 14.8874 38.9585 14.9367 39.0157C14.9859 39.0728 15.0227 39.1397 15.0445 39.2119C14.9856 39.9083 14.9856 40.6084 15.0445 41.3048C15.238 42.0698 15.6388 42.7667 16.2027 43.3187C16.6766 43.6872 17.6242 44.2006 16.9793 44.8455L17.0319 44.806ZM19.9013 44.3454C19.4606 44.3455 19.0249 44.2514 18.6235 44.0694C18.2221 43.8874 17.8643 43.6218 17.5739 43.2903C17.2835 42.9587 17.0673 42.569 16.9398 42.1471C16.8123 41.7252 16.7764 41.281 16.8345 40.8441C16.8345 39.4489 18.4534 37.2902 19.8091 38.3958C20.5857 39.0013 20.7305 40.4361 18.8878 41.7392C18.7807 41.7932 18.6972 41.8848 18.6535 41.9966C18.6098 42.1083 18.6088 42.2322 18.6509 42.3446C18.6509 42.3446 18.8746 43.1212 20.2961 43.4635C21.3491 43.7267 21.6123 43.3845 22.5073 42.9764C22.5394 42.9842 22.5695 42.9981 22.5961 43.0175C22.6227 43.0369 22.6452 43.0614 22.6624 43.0895C22.6795 43.1177 22.6909 43.1489 22.6959 43.1814C22.7009 43.214 22.6995 43.2472 22.6916 43.2792C22.5205 44.4507 20.6778 44.3848 19.9013 44.3454ZM18.335 40.6993C19.0589 40.7914 19.3485 39.5936 19.2827 39.2514C19.2938 39.2217 19.2938 39.189 19.2827 39.1593C18.822 39.1593 18.1902 39.8569 18.1507 40.2913C18.1507 40.4887 18.1507 40.673 18.4008 40.6993H18.335ZM23.1918 43.8978C24.3105 44.5165 26.4954 43.345 27.351 42.5816C27.4958 42.4499 27.6932 42.4368 27.7722 42.3183C27.8511 42.1998 27.7722 41.9629 27.6932 41.8576C27.6142 41.7523 27.6011 41.7392 27.6011 41.7392H27.3641C26.5688 42.2845 25.6746 42.669 24.7317 42.8711C23.863 42.9633 23.4155 42.0156 23.3234 41.5549C23.2181 40.8309 23.7183 39.7121 24.508 39.7121C24.7844 39.7121 24.8897 40.0938 25.1397 40.0938C25.3898 40.0938 25.5741 39.7911 25.6399 39.6331C25.7452 38.9223 25.4425 38.4485 24.6922 38.4485C23.9719 38.5514 23.3116 38.9071 22.8294 39.4521C22.3471 39.997 22.0744 40.6957 22.0598 41.4232C21.9785 41.9105 22.0516 42.4109 22.2687 42.8546C22.4858 43.2983 22.8361 43.6631 23.2707 43.8978H23.1918ZM30.8389 41.9892C30.3517 42.7389 29.7473 43.4055 29.0489 43.9636C28.7593 44.1348 27.9169 44.2532 27.6669 43.7925C27.3382 43.2044 27.2133 42.5241 27.3115 41.8576C27.3817 41.1631 27.6164 40.4954 27.9959 39.9095C28.2011 39.6687 28.4861 39.5099 28.7988 39.462C29.1278 39.462 29.062 39.8701 28.9699 40.0938C28.7751 40.7942 28.656 41.5135 28.6145 42.2393C28.6145 42.3315 28.6145 42.621 28.8251 42.621C29.3384 42.621 30.0492 40.752 30.1413 40.3308C30.2335 39.9095 30.3519 39.4752 30.7994 39.383C30.9164 39.3811 31.0312 39.4138 31.1296 39.477C31.228 39.5403 31.3055 39.6312 31.3522 39.7384C31.576 40.5808 32.6684 43.3055 33.7477 43.1739C34.3794 43.0784 34.9523 42.7497 35.3535 42.2525C35.5373 42.1286 35.7015 41.9777 35.8405 41.805C36.0906 41.5417 36.3801 41.3443 36.3801 41.9892C36.3801 42.0682 36.5644 42.0945 36.5117 42.1998C36.4591 42.3051 36.5907 42.1998 36.367 42.4499C36.1804 42.5817 36.0197 42.7468 35.8931 42.937C35.8931 42.937 35.1955 43.5819 35.1034 43.6346C31.3127 45.6353 31.6286 40.9231 30.8257 41.9892H30.8389ZM41.2632 45.3984C41.3405 45.3279 41.3996 45.2397 41.4352 45.1413C41.4708 45.043 41.482 44.9374 41.4678 44.8338C41.4535 44.7301 41.4143 44.6315 41.3534 44.5464C41.2926 44.4613 41.2119 44.3923 41.1184 44.3454C40.8947 44.1874 40.6183 43.9505 40.4077 43.7925C39.8898 43.1866 39.5163 42.471 39.3153 41.6997C39.2231 40.7783 39.947 39.8701 39.1968 39.5673C38.7098 39.3962 38.565 39.3172 38.2623 39.8701C38.0812 40.2853 37.9872 40.7333 37.9859 41.1863C37.9859 41.8181 37.9859 41.9498 37.1962 42.0287H36.9856C36.6434 42.0287 36.5644 40.9494 36.4854 40.5414C36.4064 40.1333 36.2353 40.0938 35.9853 40.1202C35.1955 40.1991 34.9981 40.5282 35.1824 41.3311C35.1824 41.3311 35.4193 42.3446 35.4588 42.4631C35.4394 42.6469 35.4394 42.8322 35.4588 43.0159C35.4735 43.4027 35.549 43.7847 35.6825 44.1479C35.7629 44.3259 35.8985 44.4732 36.0692 44.5681C36.2399 44.6629 36.4366 44.7002 36.6302 44.6744C36.7593 44.6548 36.8762 44.5867 36.9569 44.484C37.0376 44.3813 37.0761 44.2517 37.0645 44.1216C37.0645 43.8978 36.7881 42.9764 37.0645 42.9106C37.3794 42.8265 37.7008 42.7692 38.0254 42.7395C38.157 42.7395 38.4071 43.0423 38.5124 43.2002C38.8941 43.7794 40.6315 46.2539 41.2764 45.4247L41.2632 45.3984ZM47.8442 44.2137C46.528 44.2137 45.7383 41.4101 45.304 41.318C44.5669 41.318 44.7512 42.7658 44.4879 43.3845C44.2247 44.0031 43.7245 44.2269 42.79 44.24C42.4964 44.2068 42.2146 44.1049 41.9677 43.9425C41.7207 43.7802 41.5155 43.5619 41.3685 43.3055C41.11 42.8314 40.9405 42.3139 40.8684 41.7786C40.7499 40.9494 40.9473 39.1461 42.0529 39.1461C42.1846 39.1461 42.4873 39.3041 42.5005 39.4225C42.5136 39.541 41.8029 42.7132 43.0664 42.9501C43.3428 42.9501 43.6192 42.621 43.6192 42.3973C43.6192 41.5944 42.7769 41.8445 42.7769 41.3574C42.7713 41.2427 42.8089 41.13 42.8822 41.0415C43.0664 40.8441 43.3428 40.9231 43.5929 40.9231C44.172 40.9231 44.1194 41.0415 44.6459 40.5545C45.1723 40.0675 45.3961 39.1724 46.0542 39.1724C46.7123 39.1724 46.8308 40.8967 46.9624 41.2258C47.094 41.5549 47.5415 43.0686 48.3707 42.9896C49.4105 42.8975 49.8449 41.6733 50.503 41.6733C50.832 41.6733 50.8847 42.292 50.7267 42.5947C49.9956 43.4793 48.956 44.0533 47.8179 44.2006L47.8442 44.2137ZM45.5935 54.5595C45.5935 54.5595 51.0294 43.1344 52.6747 43.2397C53.3065 43.2397 53.4513 44.6349 55.7415 43.8452C56.0442 43.6609 56.2943 43.5951 56.2943 43.1344C56.2943 42.8843 56.1363 42.8053 55.9126 42.8053C54.9912 42.8053 54.5964 43.4766 53.8066 42.937C53.6341 42.8395 53.4906 42.6979 53.3908 42.5268C53.2909 42.3556 53.2383 42.1611 53.2383 41.9629C53.2383 41.7648 53.2909 41.5702 53.3908 41.3991C53.4906 41.2279 53.6341 41.0864 53.8066 40.9889C54.083 40.7388 55.9915 39.2777 55.9389 38.7117C55.9259 38.6361 55.8848 38.5682 55.8237 38.5218C55.7626 38.4754 55.6862 38.4539 55.6098 38.4617C55.1097 38.4617 54.2936 39.2909 53.8724 39.6595C53.7013 39.8174 52.8985 40.8704 52.5562 40.8704C52.214 40.8704 51.8323 39.5542 51.7534 39.4094C51.6744 39.2646 51.5033 38.7118 50.8715 38.9618C50.4635 39.1198 50.7136 39.6331 50.8715 40.028C51.2532 40.7914 52.0298 41.4759 51.4638 42.3841C50.5819 43.7004 43.6719 54.033 45.554 54.5069L45.5935 54.5595Z" fill="white"/>
</svg>
