<svg width="57" height="57" viewBox="0 0 57 57" fill="none" xmlns="http://www.w3.org/2000/svg">
<path d="M28.5 3.5625C16.6946 3.5625 7.125 13.1321 7.125 24.9375C7.125 30.8381 9.51579 36.1808 13.3825 40.0486C17.2503 43.9185 26.3625 49.5187 26.8969 55.3969C26.977 56.2782 27.6151 57 28.5 57C29.3849 57 30.023 56.2782 30.1031 55.3969C30.6375 49.5187 39.7497 43.9185 43.6175 40.0486C47.4842 36.1808 49.875 30.8381 49.875 24.9375C49.875 13.1321 40.3054 3.5625 28.5 3.5625Z" fill="#FF4433"/>
<path d="M29.4812 29.9625C33.613 29.9625 36.9624 26.613 36.9624 22.4813C36.9624 18.3495 33.613 15 29.4812 15C25.3495 15 22 18.3495 22 22.4813C22 26.613 25.3495 29.9625 29.4812 29.9625Z" fill="white"/>
</svg>
