<svg width="47" height="14" viewBox="0 0 47 14" fill="none" xmlns="http://www.w3.org/2000/svg">
<path d="M6.93739 0C3.10606 0 0 3.13406 0 7.00004C0 10.8662 3.10606 14 6.93739 14C10.7691 14 13.8749 10.8662 13.8749 7.00004C13.8749 3.13431 10.7691 0.00033436 6.9373 0.00033436L6.93739 0ZM10.1188 10.0961C10.0892 10.145 10.0503 10.1876 10.0044 10.2214C9.95848 10.2551 9.9064 10.2794 9.85115 10.2929C9.7959 10.3063 9.73857 10.3086 9.68244 10.2996C9.62631 10.2907 9.57248 10.2707 9.52403 10.2407C7.8952 9.23676 5.84471 9.00939 3.42988 9.56611C3.31806 9.59176 3.20073 9.57157 3.10366 9.50997C3.00658 9.44837 2.93772 9.3504 2.91221 9.23759C2.8995 9.18174 2.89783 9.1239 2.90731 9.0674C2.91678 9.01089 2.93721 8.95682 2.96742 8.9083C2.99763 8.85977 3.03703 8.81773 3.08336 8.78458C3.1297 8.75144 3.18206 8.72785 3.23744 8.71515C5.88008 8.10595 8.14687 8.36825 9.97551 9.49589C10.1793 9.62211 10.2439 9.89044 10.1188 10.0961ZM10.968 8.19004C10.8114 8.44683 10.4784 8.52791 10.224 8.36992C8.35928 7.21336 5.51674 6.87842 3.31109 7.554C3.02504 7.64118 2.72291 7.47851 2.6361 7.19038C2.59467 7.05185 2.60938 6.9024 2.67699 6.7748C2.74461 6.6472 2.85961 6.55187 2.99679 6.5097C5.51624 5.73833 8.64839 6.11198 10.7898 7.43981C11.0442 7.5978 11.1245 7.93383 10.968 8.19012V8.19004ZM11.0409 6.20526C8.80496 4.86522 5.11604 4.74201 2.9813 5.39577C2.6385 5.50068 2.27598 5.30541 2.1721 4.95951C2.12215 4.79333 2.13965 4.61393 2.22076 4.46077C2.30187 4.3076 2.43994 4.19321 2.60462 4.14275C5.05515 3.39211 9.12887 3.53714 11.7031 5.07913C11.7765 5.12292 11.8405 5.18089 11.8917 5.24971C11.9428 5.31854 11.98 5.39686 12.001 5.4802C12.0221 5.56354 12.0267 5.65026 12.0145 5.73539C12.0024 5.82052 11.9737 5.90239 11.9301 5.97631C11.7478 6.28743 11.3485 6.39 11.0412 6.20526H11.0409ZM18.8743 6.46205C17.6764 6.17383 17.4635 5.97154 17.4635 5.54648C17.4635 5.14492 17.838 4.87467 18.3955 4.87467C18.9356 4.87467 19.4708 5.07988 20.0325 5.50235C20.049 5.51514 20.0706 5.52024 20.0913 5.51689C20.1017 5.51539 20.1117 5.51174 20.1207 5.5062C20.1296 5.50065 20.1374 5.49331 20.1435 5.48463L20.7283 4.65273C20.7399 4.63624 20.7448 4.61593 20.742 4.59592C20.7392 4.57592 20.729 4.55774 20.7134 4.54507C20.0449 4.00399 19.2927 3.74093 18.4129 3.74093C17.1198 3.74093 16.216 4.52409 16.216 5.64462C16.216 6.84624 16.9955 7.27171 18.3425 7.60014C19.4882 7.86654 19.682 8.08973 19.682 8.48862C19.682 8.93082 19.291 9.20583 18.6614 9.20583C17.9622 9.20583 17.3915 8.9676 16.7536 8.41088C16.7377 8.39731 16.7172 8.39043 16.6964 8.39166C16.6749 8.39333 16.6558 8.40336 16.6426 8.41924L15.9865 9.20667C15.9591 9.2401 15.9625 9.28858 15.9939 9.31701C16.7362 9.98573 17.6491 10.3385 18.6349 10.3385C20.0283 10.3385 20.9288 9.57028 20.9288 8.38079C20.9313 7.37712 20.3357 6.82124 18.8768 6.46314L18.8743 6.46205ZM24.0817 5.27005C23.4778 5.27005 22.9824 5.51012 22.5732 6.00205V5.44835C22.5733 5.42741 22.5651 5.4073 22.5505 5.39243C22.5359 5.37755 22.5161 5.36913 22.4953 5.36902H21.4225C21.3795 5.36902 21.3447 5.40463 21.3447 5.44835V11.6007C21.3447 11.6442 21.3795 11.6801 21.4225 11.6801H22.4953C22.5384 11.6801 22.5732 11.6442 22.5732 11.6007V9.65889C22.9824 10.1211 23.4778 10.3477 24.0817 10.3477C25.2042 10.3477 26.3408 9.47583 26.3408 7.80911C26.3425 6.14207 25.2059 5.26997 24.0826 5.26997L24.0817 5.27005ZM25.0932 7.80911C25.0932 8.65748 24.5755 9.25013 23.8332 9.25013C23.1001 9.25013 22.5467 8.63073 22.5467 7.80911C22.5467 6.98742 23.1001 6.36818 23.8332 6.36818C24.5631 6.3681 25.0932 6.97396 25.0932 7.80903V7.80911ZM29.2527 5.27005C27.8071 5.27005 26.6747 6.39317 26.6747 7.82725C26.6747 9.24595 27.7997 10.3569 29.2353 10.3569C30.6859 10.3569 31.8216 9.23759 31.8216 7.80911C31.8216 6.38548 30.6933 5.27022 29.2527 5.27022V5.27005ZM29.2527 9.25849C28.4839 9.25849 27.904 8.63491 27.904 7.8087C27.904 6.97873 28.4641 6.37646 29.2353 6.37646C30.009 6.37646 30.5922 6.99979 30.5922 7.82684C30.5922 8.65664 30.0289 9.25849 29.2527 9.25849ZM34.9083 5.36902H33.7278V4.15144C33.7278 4.14108 33.7259 4.13081 33.722 4.12122C33.7181 4.11163 33.7124 4.10291 33.7051 4.09555C33.6979 4.08819 33.6893 4.08234 33.6798 4.07833C33.6704 4.07433 33.6602 4.07224 33.6499 4.0722H32.5771C32.534 4.0722 32.4984 4.10781 32.4984 4.15144V5.36902H31.9832C31.9401 5.36902 31.9053 5.40463 31.9053 5.44835V6.37846C31.9053 6.4221 31.9401 6.45779 31.9832 6.45779H32.4984V8.86478C32.4984 9.83694 32.9781 10.3301 33.925 10.3301C34.3093 10.3301 34.6283 10.2499 34.929 10.0777C34.9538 10.0643 34.9688 10.0376 34.9688 10.0091V9.12308C34.9688 9.09633 34.9547 9.07041 34.9315 9.0562C34.9202 9.04892 34.9072 9.04478 34.8938 9.04419C34.8804 9.0436 34.8671 9.04659 34.8553 9.05286C34.649 9.15735 34.4493 9.20583 34.2257 9.20583C33.8819 9.20583 33.7278 9.04784 33.7278 8.69509V6.45821H34.9083C34.9514 6.45821 34.9862 6.4226 34.9862 6.37888V5.44885C34.9865 5.43847 34.9848 5.42813 34.981 5.41845C34.9773 5.40877 34.9717 5.39996 34.9645 5.39254C34.9573 5.38513 34.9486 5.37926 34.9391 5.37531C34.9296 5.37135 34.9194 5.36938 34.9091 5.36952L34.9083 5.36902ZM39.0205 5.37379V5.22424C39.0205 4.78431 39.1879 4.58812 39.5623 4.58812C39.786 4.58812 39.9658 4.63292 40.1671 4.70063C40.1919 4.70849 40.2176 4.70456 40.2375 4.6896C40.2476 4.68225 40.2558 4.67258 40.2614 4.66138C40.267 4.65018 40.2699 4.63779 40.2698 4.62523V3.71326C40.27 3.69623 40.2647 3.6796 40.2546 3.66588C40.2446 3.65217 40.2305 3.64213 40.2143 3.63728C40.0022 3.5735 39.7305 3.50805 39.3229 3.50805C38.3329 3.50805 37.8086 4.07094 37.8086 5.1353V5.36434H37.2933C37.2502 5.36434 37.2146 5.39995 37.2146 5.44359V6.37846C37.2146 6.4221 37.2502 6.45779 37.2933 6.45779H37.8086V10.1696C37.8086 10.2139 37.8442 10.249 37.8873 10.249H38.9592C39.0031 10.249 39.0379 10.2139 39.0379 10.1696V6.45804H40.0395L41.5737 10.1696C41.3997 10.5592 41.2283 10.6369 40.9946 10.6369C40.8058 10.6369 40.6061 10.5801 40.4032 10.4672C40.3839 10.4574 40.3617 10.4553 40.341 10.4614C40.3203 10.4689 40.3029 10.4839 40.2946 10.504L39.931 11.309C39.9136 11.3474 39.9285 11.3917 39.9649 11.4118C40.3443 11.6191 40.6865 11.7077 41.1098 11.7077C41.9018 11.7077 42.34 11.3349 42.7252 10.3335L44.5858 5.48212C44.5907 5.47013 44.5924 5.4571 44.591 5.44423C44.5895 5.43137 44.5849 5.41907 44.5775 5.40848C44.5705 5.39787 44.5611 5.38918 44.5499 5.38317C44.5388 5.37717 44.5264 5.37403 44.5137 5.37404H43.397C43.3631 5.37404 43.3333 5.39552 43.3225 5.4272L42.1784 8.72351L40.9259 5.42503C40.9203 5.41008 40.9103 5.3972 40.8973 5.38809C40.8843 5.37899 40.8688 5.37409 40.853 5.37404H39.0205V5.37379ZM36.6364 5.36902H35.5636C35.5205 5.36902 35.4849 5.40463 35.4849 5.44835V10.1696C35.4849 10.2139 35.5205 10.249 35.5636 10.249H36.6364C36.6794 10.249 36.7151 10.2139 36.7151 10.1696V5.44868C36.7151 5.43825 36.7131 5.42792 36.7091 5.41828C36.7052 5.40864 36.6994 5.39988 36.692 5.39251C36.6847 5.38514 36.6761 5.3793 36.6665 5.37533C36.6569 5.37135 36.6467 5.36932 36.6364 5.36936V5.36902ZM36.1062 3.21916C35.6812 3.21916 35.3366 3.56622 35.3366 3.99496C35.3366 4.42395 35.6812 4.77143 36.1062 4.77143C36.5311 4.77143 36.8749 4.42395 36.8749 3.99496C36.8749 3.56631 36.5303 3.21916 36.1062 3.21916ZM45.502 6.88711C45.0779 6.88711 44.7474 6.54314 44.7474 6.12543C44.7474 5.70773 45.082 5.35983 45.5062 5.35983C45.9303 5.35983 46.2609 5.70372 46.2609 6.12109C46.2609 6.53879 45.9262 6.88711 45.502 6.88711ZM45.5062 5.43556C45.1193 5.43556 44.8269 5.74568 44.8269 6.12543C44.8269 6.50502 45.1177 6.81096 45.502 6.81096C45.8889 6.81096 46.1813 6.50109 46.1813 6.12109C46.1813 5.7415 45.8906 5.43556 45.5062 5.43556ZM45.6735 6.19941L45.8873 6.50101H45.7067L45.5145 6.22432H45.3496V6.50101H45.1988V5.70155H45.5517C45.7365 5.70155 45.8574 5.79659 45.8574 5.95658C45.8583 6.08765 45.7829 6.16773 45.6744 6.19941H45.6735ZM45.5459 5.83872H45.3496V6.09158H45.5459C45.6437 6.09158 45.7025 6.04318 45.7025 5.96502C45.7025 5.88277 45.6437 5.83872 45.5459 5.83872Z" fill="#2C3036" fill-opacity="0.8"/>
</svg>
