<svg width="70" height="12" viewBox="0 0 70 12" fill="none" xmlns="http://www.w3.org/2000/svg">
<path d="M5.59131 9.2968L8.98033 0H7.30548L4.58903 7.66161H4.32539L1.70106 0H0L3.2836 9.2968H5.59131Z" fill="#2C3036" fill-opacity="0.8"/>
<path d="M13.3738 4.48355L17.3167 0H15.3651L12.0682 3.78465H11.6859V0H10.1035V9.2968H11.6859V5.31433H12.0815L15.5628 9.2968H17.6464L13.3738 4.48355Z" fill="#2C3036" fill-opacity="0.8"/>
<path d="M22.9535 9.2968V2.10991H23.1645L25.7622 9.2968H27.2392L29.8899 2.10991H30.1007V9.2968H31.6438V0H29.2174L26.6327 7.02863H26.4217L23.8899 0H21.4106V9.2968H22.9535Z" fill="#2C3036" fill-opacity="0.8"/>
<path d="M36.612 7.38455H36.401L34.3833 2.43945H32.7612L35.8074 9.6659L35.7284 9.87688C35.5305 10.4307 35.2933 10.6153 34.792 10.6153H33.513L33.6448 12H34.6866C35.9525 12 36.6382 11.4329 37.0997 10.1538L39.9087 2.43945H38.3658L36.612 7.38455Z" fill="#2C3036" fill-opacity="0.8"/>
<path d="M44.6788 5.80216C45.3778 5.61754 45.892 5.05051 45.892 4.27248C45.892 3.12521 44.7976 2.30762 43.2809 2.30762C41.9227 2.30762 40.7755 2.9406 40.3535 4.2461L41.7514 4.48346C42.0283 3.94281 42.5689 3.59994 43.2283 3.59994C43.8612 3.59994 44.3755 3.91643 44.3755 4.43071C44.3755 4.89226 43.9535 5.19556 43.136 5.19556H42.2788V6.51425H43.136C44.1645 6.51425 44.4809 6.85712 44.4809 7.29228C44.4809 7.81976 44.0063 8.13625 43.136 8.13625C42.3447 8.13625 41.8832 7.87251 41.5799 7.26591L40.1821 7.50328C40.5117 8.65054 41.6327 9.42857 43.1491 9.42857C44.8899 9.42857 45.9976 8.53185 45.9976 7.41097C45.9976 6.55381 45.3778 6.01316 44.6788 5.80216Z" fill="#2C3036" fill-opacity="0.8"/>
<path d="M50.0309 9.29666C51.6661 9.29666 52.8266 8.28127 52.8266 6.8439C52.8266 5.40651 51.6792 4.39111 50.0309 4.39111H48.9627V2.43945H47.4463V9.29666H50.0309ZM55.1607 9.29666V2.43945H53.6441V9.29666H55.1607ZM48.9627 5.70981H50.0309C50.7825 5.70981 51.31 6.17136 51.31 6.8439C51.31 7.51642 50.7825 7.97796 50.0309 7.97796H48.9627V5.70981Z" fill="#2C3036" fill-opacity="0.8"/>
<path d="M63.1231 9.29666L59.9715 5.7362L62.8595 2.43945H61.0528L58.7582 5.10322H58.389V2.43945H56.8726V9.29666H58.389V6.56697H58.7582L61.132 9.29666H63.1231Z" fill="#2C3036" fill-opacity="0.8"/>
<path d="M66.5192 2.30762C65.1874 2.30762 64.0138 2.99334 63.671 4.18017L65.0687 4.41753C65.2797 3.99555 65.7544 3.59994 66.4402 3.59994C67.271 3.59994 67.7589 4.19335 67.8248 5.09007H66.3479C64.3302 5.09007 63.3281 5.97359 63.3281 7.23953C63.3281 8.51867 64.3171 9.42857 65.7149 9.42857C66.8359 9.42857 67.5874 8.78241 67.9171 8.21536L68.2336 9.2967H69.3546V5.44611C69.3546 3.45488 68.2731 2.30762 66.5192 2.30762ZM66.071 8.14944C65.3325 8.14944 64.8577 7.767 64.8577 7.17361C64.8577 6.64612 65.2402 6.27688 66.4007 6.27688H67.838C67.838 7.39779 67.1259 8.14944 66.071 8.14944Z" fill="#2C3036" fill-opacity="0.8"/>
</svg>
