<svg width="47" height="11" viewBox="0 0 47 11" fill="none" xmlns="http://www.w3.org/2000/svg">
<path d="M19.6385 10.8894V3.42714H19.5819L16.5228 10.8894H15.3332L12.2742 3.42714H12.2175V10.8894H10.8013V0.773869H12.6141L15.8997 8.84422H15.9563L19.242 0.773869H21.1114V10.8894H19.6385ZM29.0989 10.8894H27.626V9.61809H27.5694C27.1729 10.5025 26.3798 11 25.2468 11C23.604 11 22.6409 9.94975 22.6409 8.23618V3.48241H24.1705V7.9598C24.1705 9.06533 24.7369 9.67337 25.7566 9.67337C26.8896 9.67337 27.5127 8.8995 27.5127 7.73869V3.48241H29.0423L29.0989 10.8894ZM33.2909 3.37186C35.0471 3.37186 36.1234 4.31156 36.18 5.69347H34.7638C34.6505 4.97487 34.1407 4.53266 33.2909 4.53266C32.4412 4.53266 31.8747 4.9196 31.8747 5.52764C31.8747 5.96985 32.2146 6.30151 33.0077 6.46734L34.1973 6.74372C35.7268 7.07538 36.2933 7.68342 36.2933 8.73367C36.2933 10.0603 35.0471 11 33.2909 11C31.4215 11 30.2885 10.1156 30.1752 8.67839H31.7048C31.8181 9.45226 32.3846 9.8392 33.2909 9.8392C34.1973 9.8392 34.7638 9.45226 34.7638 8.84422C34.7638 8.34673 34.4806 8.07035 33.6875 7.90452L32.4979 7.62814C31.0816 7.29648 30.4018 6.63317 30.4018 5.52764C30.4018 4.25628 31.5348 3.37186 33.2909 3.37186ZM37.4263 1.54774C37.4263 1.05025 37.8229 0.663317 38.3327 0.663317C38.8425 0.663317 39.2391 1.05025 39.2391 1.54774C39.2391 2.04523 38.8425 2.43216 38.3327 2.43216C37.8229 2.43216 37.4263 2.04523 37.4263 1.54774ZM37.5396 3.48241H39.0691V10.8894H37.5396V3.48241ZM45.5271 6.02513C45.3572 5.25126 44.7907 4.58794 43.771 4.58794C42.5814 4.58794 41.7883 5.58291 41.7883 7.13065C41.7883 8.73367 42.5814 9.67337 43.771 9.67337C44.734 9.67337 45.3005 9.17588 45.5271 8.29146H47C46.8301 9.8392 45.5838 10.9447 43.771 10.9447C41.6183 10.9447 40.2588 9.50754 40.2588 7.13065C40.2588 4.80905 41.6183 3.31658 43.771 3.31658C45.6971 3.31658 46.8301 4.53266 47 5.96985L45.5271 6.02513ZM6.09942 1.76884C5.70288 2.21106 5.07974 2.59799 4.4566 2.54271C4.34331 1.8794 4.6832 1.21608 5.02309 0.829146C5.41964 0.331658 6.09942 0 6.66591 0C6.72256 0.60804 6.49597 1.27136 6.09942 1.76884ZM6.66591 2.65327C7.00581 2.65327 8.02549 2.76382 8.70528 3.75879C8.64863 3.81407 7.51565 4.47739 7.51565 5.8593C7.51565 7.51759 8.98852 8.07035 8.98852 8.07035C8.98852 8.12563 8.76193 8.84422 8.25209 9.61809C7.79889 10.2814 7.28905 10.9447 6.55262 10.9447C5.81618 10.9447 5.58958 10.5025 4.73985 10.5025C3.89011 10.5025 3.60687 10.9447 2.92708 10.9447C2.19064 10.9447 1.62415 10.2261 1.17096 9.56281C0.207928 8.18091 -0.528509 5.69347 0.491173 4.03518C0.944365 3.20603 1.85075 2.65327 2.75713 2.65327C3.49357 2.65327 4.17336 3.15075 4.5699 3.15075C4.96644 3.15075 5.75953 2.59799 6.66591 2.65327Z" fill="#2C3036" fill-opacity="0.8"/>
</svg>
