<svg width="63" height="12" viewBox="0 0 63 12" fill="none" xmlns="http://www.w3.org/2000/svg">
<path fill-rule="evenodd" clip-rule="evenodd" d="M3.80742 0.891405H3.23954C2.38117 0.891405 1.55075 1.45394 1.55075 3.08573C1.55075 4.663 2.31215 5.17058 3.23954 5.17058H3.80742V0.891405ZM2.92153 6.04814L1.2323 9.80589H0L1.85522 5.78721C0.98287 5.34886 0.401448 4.55309 0.401448 3.08573C0.401448 1.02858 1.71675 0 3.28147 0H4.87329V9.80589H3.80742V6.04814H2.92153Z" fill="#2C3036" fill-opacity="0.8"/>
<path fill-rule="evenodd" clip-rule="evenodd" d="M25.5221 6.3503C25.5221 4.18324 26.3669 2.7981 28.0007 2.7981C28.6236 2.7981 28.9835 2.96296 29.288 3.15466L29.1355 4.16982C28.8446 3.92317 28.4296 3.68993 27.9867 3.68993C27.2113 3.68993 26.6578 4.55364 26.6578 6.29535C26.6578 8.0232 27.0728 9.01067 27.9452 9.01067C28.4711 9.01067 28.8726 8.80513 29.1216 8.58574L29.371 9.38108C28.9971 9.6961 28.5541 9.90208 27.9172 9.90208C26.4224 9.90208 25.5221 8.70906 25.5221 6.3503ZM22.3655 6.36372V9.80601H21.2861V2.89459H22.3655V6.08937L24.0408 2.89459H25.1346L23.4039 6.14433L25.384 9.80601H24.2068L22.3655 6.36372ZM17.2852 5.7194H19.0705C19.0705 4.5398 18.877 3.67565 18.2541 3.67565C17.5897 3.67565 17.3542 4.48484 17.2852 5.7194ZM18.4756 9.90208C17.0358 9.90208 16.1499 8.76402 16.1499 6.63806C16.1499 4.41647 16.7728 2.7981 18.2541 2.7981C19.4169 2.7981 20.1788 3.66224 20.1788 6.00715V6.59695H17.2708C17.2708 8.16081 17.7142 8.98341 18.5725 8.98341C19.1815 8.98341 19.6664 8.70906 19.9433 8.51694L20.1923 9.33997C19.7494 9.68269 19.1675 9.90208 18.4756 9.90208ZM13.8792 3.7583H12.6749V3.88163C12.6749 5.33514 12.6059 7.4611 12.0244 8.92845H13.8792V3.7583ZM15.499 11.1639H14.5301V9.80601H11.5396V11.1639H10.5702V8.92845H10.9996C11.6365 7.4611 11.7056 5.32172 11.7056 3.48396V2.89459H14.9451V8.92845H15.499V11.1639ZM9.94774 2.89459V9.80601H8.88144V6.70686H7.27521V9.80601H6.1958V2.89459H7.27521V5.82931H8.88144V2.89459H9.94774Z" fill="#2C3036" fill-opacity="0.8"/>
<path fill-rule="evenodd" clip-rule="evenodd" d="M39.3684 11.9728L39.2994 11.3691C39.4104 11.3968 39.5484 11.4236 39.7284 11.4236C40.1993 11.4236 40.5313 10.9719 40.7392 10.2034L40.7947 9.99783L39.064 2.89429H39.7148L40.8222 7.40584C40.9467 7.92683 41.0437 8.43441 41.1127 8.96926H41.1546C41.2516 8.42057 41.3621 7.91298 41.4871 7.40584L42.5665 2.89429H43.1479L41.3621 10.1623C41.1267 11.0952 40.7113 12 39.7284 12C39.5764 12 39.4654 11.9862 39.3684 11.9728Z" fill="#2C3036" fill-opacity="0.8"/>
<path fill-rule="evenodd" clip-rule="evenodd" d="M43.6938 9.17495L43.9158 8.64011C43.9158 8.64011 44.3862 9.38093 45.3411 9.38093C46.0615 9.38093 46.6429 8.87335 46.6429 7.87203C46.6429 7.00832 46.2139 6.41852 45.1756 6.41852H44.5942V5.89752H45.1061C45.909 5.89752 46.4765 5.4172 46.4765 4.47128C46.4765 3.772 46.103 3.31937 45.4246 3.31937C44.7877 3.31937 44.3307 3.6755 44.0263 4.10043L43.8603 3.48381C44.1648 3.08614 44.6772 2.75684 45.4246 2.75684C46.5184 2.75684 47.0998 3.4427 47.0998 4.45743C47.0998 5.12901 46.8229 5.74651 46.0615 6.11691C46.9334 6.43237 47.3073 7.10438 47.3073 7.85862C47.3073 9.20221 46.4214 9.94303 45.3556 9.94303C44.2338 9.94303 43.6938 9.17495 43.6938 9.17495Z" fill="#2C3036" fill-opacity="0.8"/>
<path fill-rule="evenodd" clip-rule="evenodd" d="M52.4661 9.80589H53.103V2.89404H52.4661V9.80589ZM49.0191 5.96593V9.29831H49.4345C50.4174 9.29831 51.0818 8.81799 51.0818 7.62541C51.0818 6.45923 50.5 5.96593 49.5035 5.96593H49.0191ZM48.3687 2.89404H49.0191V5.45835H49.5315C50.8603 5.45835 51.7187 6.17147 51.7187 7.61113C51.7187 9.07892 50.8049 9.80589 49.4896 9.80589H48.3687V2.89404Z" fill="#2C3036" fill-opacity="0.8"/>
<path fill-rule="evenodd" clip-rule="evenodd" d="M57.5785 9.80565L55.1558 6.22662V9.80565H54.5054V2.8938H55.1558V6.14397L57.495 2.8938H58.1319L55.8342 6.10286L58.2984 9.80565H57.5785Z" fill="#2C3036" fill-opacity="0.8"/>
<path fill-rule="evenodd" clip-rule="evenodd" d="M61.7824 8.06391V6.15778H61.035C59.8857 6.15778 59.3322 6.67921 59.3322 7.88607C59.3322 8.85969 59.7612 9.42179 60.426 9.42179C61.0765 9.42179 61.5334 8.80473 61.7824 8.06391ZM61.8099 8.8731C61.4779 9.5317 60.9795 9.94322 60.2871 9.94322C59.3462 9.94322 58.6953 9.2024 58.6953 7.94059C58.6953 6.45939 59.5122 5.69174 61.021 5.69174H61.7824V4.82759C61.7824 3.77175 61.3809 3.31913 60.6196 3.31913C60.0246 3.31913 59.4842 3.59347 59.1522 4.07336L58.9718 3.4563C59.2488 3.09931 59.8302 2.75659 60.6196 2.75659C61.7689 2.75659 62.4193 3.3875 62.4193 4.75879V8.53039C62.4193 9.01071 62.4883 9.54512 62.5717 9.80562H61.9764C61.9209 9.62734 61.8519 9.36684 61.8099 8.8731Z" fill="#2C3036" fill-opacity="0.8"/>
<path fill-rule="evenodd" clip-rule="evenodd" d="M33.7093 3.05334C33.57 2.54576 33.4588 2.10698 33.3749 1.65479H33.3336C33.3612 2.12083 33.3749 2.61456 33.3749 3.1083V9.97904H32.7622V0.173584H33.57L35.2555 6.44068C35.3249 6.70161 35.4225 7.20876 35.4643 7.57917H35.506C35.5618 7.20876 35.6735 6.68733 35.7429 6.44068L37.442 0.173584H38.2226V9.97904H37.5537V3.1083C37.5537 2.64226 37.5818 2.14809 37.6095 1.65479H37.5537C37.4284 2.20305 37.3308 2.60072 37.2192 3.01223L35.7293 8.47058H35.1856L33.7093 3.05334Z" fill="#2C3036" fill-opacity="0.8"/>
</svg>
