<svg width="36" height="36" viewBox="0 0 36 36" fill="none" xmlns="http://www.w3.org/2000/svg">
<path d="M13.5334 18.5406C13.1572 19.28 13.5843 19.6335 14.5588 20.2373C15.3872 20.7491 16.5316 20.9362 17.2667 21.0111C16.9654 21.3007 18.3461 19.9728 14.3698 23.7976C13.5266 24.6058 14.884 25.9024 15.7265 25.1114L18.0074 22.9115C18.8806 23.7516 19.7176 24.5567 20.2883 25.1145C21.1314 25.9085 22.4882 24.623 21.6542 23.8007C21.5916 23.7412 18.5633 20.8362 18.748 21.0142C19.4924 20.9393 20.6196 20.7411 21.4382 20.2404L21.4376 20.2398C22.4121 19.6329 22.8392 19.28 22.4685 18.5406C22.2445 18.1209 21.6407 17.7699 20.8369 18.3768C20.8369 18.3768 19.7513 19.2082 18.0006 19.2082C16.2493 19.2082 15.1644 18.3768 15.1644 18.3768C14.3612 17.7668 13.7549 18.1209 13.5334 18.5406Z" fill="#2C3036" fill-opacity="0.8"/>
<path d="M17.9994 18.0871C20.1336 18.0871 21.8763 16.4193 21.8763 14.366C21.8763 12.3042 20.1336 10.6364 17.9994 10.6364C15.8646 10.6364 14.1218 12.3042 14.1218 14.366C14.1218 16.4193 15.8646 18.0871 17.9994 18.0871ZM17.9994 12.5257C19.0481 12.5257 19.9035 13.3486 19.9035 14.366C19.9035 15.3749 19.0481 16.1977 17.9994 16.1977C16.9507 16.1977 16.0953 15.3749 16.0953 14.366C16.0947 13.348 16.9501 12.5257 17.9994 12.5257Z" fill="#2C3036" fill-opacity="0.8"/>
<rect x="0.5" y="0.5" width="35" height="35" rx="17.5" stroke="#C6BEB3"/>
</svg>
