<svg width="36" height="36" viewBox="0 0 36 36" fill="none" xmlns="http://www.w3.org/2000/svg">
<path d="M28.8 18.1157V17.8842C24.0172 17.73 21.834 17.6142 20.0829 15.9171C18.3857 14.166 18.2623 11.9828 18.1157 7.19995H17.8843C17.73 11.9828 17.6143 14.166 15.9172 15.9171C14.166 17.6142 11.9829 17.7377 7.20001 17.8842V18.1157C11.9829 18.27 14.166 18.3857 15.9172 20.0828C17.6143 21.834 17.7377 24.0171 17.8843 28.8H18.1157C18.27 24.0171 18.3857 21.834 20.0829 20.0828C21.834 18.3857 24.0172 18.2622 28.8 18.1157Z" fill="#2C3036" fill-opacity="0.8"/>
<rect x="0.5" y="0.5" width="35" height="35" rx="17.5" stroke="#C6BEB3"/>
</svg>
