<svg width="16" height="24" viewBox="0 0 16 24" fill="none" xmlns="http://www.w3.org/2000/svg">
<path d="M15.0648 20.6013C15.1281 20.7512 15.1603 20.9033 15.1603 21.0576C15.1603 21.2714 15.1037 21.4701 14.9899 21.6555C14.8766 21.8404 14.7173 21.982 14.513 22.0797L13.5526 22.5293C13.1779 22.6998 12.8026 22.8236 12.4268 22.9007C12.0509 22.9779 11.6712 23.0167 11.287 23.0167C10.6692 23.0167 10.059 22.914 9.45615 22.7086C8.85326 22.5032 8.27646 22.209 7.72575 21.8265C7.17505 21.444 6.6582 20.981 6.17578 20.4386C5.69335 19.8957 5.26089 19.2906 4.87951 18.6227C4.63635 18.2525 4.38098 17.83 4.11285 17.3553C3.88579 16.9512 3.62654 16.4671 3.33453 15.9025C3.04252 15.3385 2.74829 14.7117 2.45073 14.0239C2.14651 13.3355 1.90502 12.7343 1.72682 12.2202C1.54861 11.7056 1.41038 11.2781 1.31323 10.9378C1.19942 10.5403 1.12115 10.1995 1.0784 9.91579C0.921851 9.38896 0.80638 8.8649 0.732545 8.34361C0.65871 7.82233 0.62207 7.30604 0.62207 6.7953C0.62207 6.12746 0.689244 5.48515 0.823034 4.86727C0.956825 4.24939 1.16279 3.67481 1.4398 3.14353C1.71682 2.61226 2.06823 2.13705 2.49403 1.71791C2.91983 1.29878 3.42335 0.957914 4.00459 0.694218L4.95167 0.258427C5.10101 0.194584 5.2509 0.162941 5.40079 0.162941C5.61175 0.162941 5.80827 0.221232 5.99036 0.338368C6.17189 0.455504 6.30846 0.617053 6.39895 0.823568L8.2215 4.9622C8.28534 5.11209 8.31699 5.26198 8.31699 5.41187C8.31699 5.63227 8.26036 5.83601 8.14656 6.02309C8.03275 6.21018 7.87287 6.35063 7.66635 6.44389L5.79273 7.30548C5.54513 7.41929 5.35582 7.58583 5.2237 7.80623C5.09213 8.02662 5.02607 8.26367 5.02607 8.51793C5.02607 8.71112 5.06215 8.89265 5.13487 9.06308L8.21095 16.0874C8.33142 16.3577 8.49741 16.5565 8.71003 16.6836C8.9221 16.8107 9.1536 16.8746 9.40341 16.8746C9.57384 16.8746 9.74761 16.8357 9.9247 16.7586L11.7983 15.897C11.946 15.8337 12.0948 15.8015 12.2447 15.8015C12.4512 15.8015 12.6466 15.8598 12.8303 15.9769C13.0141 16.094 13.1529 16.2545 13.2462 16.4588L15.0648 20.6013Z" fill="#55002B"/>
</svg>
