<svg width="36" height="28" viewBox="0 0 36 28" fill="none" xmlns="http://www.w3.org/2000/svg">
<path d="M3.4 25.4C1.4 23.2 0.199997 20.8 0.199997 16.8C0.199997 9.80002 5.2 3.60002 12.2 0.400024L14 3.00002C7.4 6.60002 6 11.2 5.6 14.2C6.6 13.6 8 13.4 9.4 13.6C13 14 15.8 16.8 15.8 20.6C15.8 22.4 15 24.2 13.8 25.6C12.4 27 10.8 27.6 8.8 27.6C6.6 27.6 4.6 26.6 3.4 25.4ZM23.4 25.4C21.4 23.2 20.2 20.8 20.2 16.8C20.2 9.80002 25.2 3.60002 32.2 0.400024L34 3.00002C27.4 6.60002 26 11.2 25.6 14.2C26.6 13.6 28 13.4 29.4 13.6C33 14 35.8 16.8 35.8 20.6C35.8 22.4 35 24.2 33.8 25.6C32.6 27 30.8 27.6 28.8 27.6C26.6 27.6 24.6 26.6 23.4 25.4Z" fill="#C6BEB3"/>
</svg>
