<svg width="24" height="24" viewBox="0 0 24 24" fill="none" xmlns="http://www.w3.org/2000/svg">
<path d="M11.5556 0.0221863C5.18357 0.0221863 0 5.20575 0 11.5777C0 17.9497 5.18357 23.1333 11.5556 23.1333C17.9275 23.1333 23.1111 17.9497 23.1111 11.5777C23.1111 5.20575 17.9275 0.0221863 11.5556 0.0221863ZM17.0512 17.5548C16.8634 17.7425 16.6169 17.8371 16.3704 17.8371C16.1239 17.8371 15.8773 17.7425 15.6896 17.5548L10.8748 12.7401C10.6937 12.56 10.5927 12.3153 10.5927 12.0593V5.79996C10.5927 5.26747 11.0239 4.83706 11.5556 4.83706C12.0872 4.83706 12.5185 5.26747 12.5185 5.79996V11.6606L17.0512 16.1932C17.4277 16.5698 17.4277 17.1783 17.0512 17.5548Z" fill="#55002B"/>
</svg>
